<?xml version="1.0"?>
<svg xmlns:rdf="http://www.w3.org/1999/02/22-rdf-syntax-ns#" xmlns="http://www.w3.org/2000/svg" xmlns:cc="http://creativecommons.org/ns#" xmlns:dc="http://purl.org/dc/elements/1.1/" xmlns:svg="http://www.w3.org/2000/svg" id="svg2" viewBox="0 0 436.71 625.91" version="1.1">
  <g id="layer1" transform="translate(445.37 -697.07)">
    <path id="path2900" d="m-249.06 1313.1c-27.034-3.2591-61.806-11.12-79.561-17.985-11.86-4.5862-43.907-20.325-52.251-25.662-2.9005-1.855-11.811-8.678-19.8-15.162-14.181-11.509-14.832-12.206-27.341-29.305-7.048-9.6337-12.656-17.635-12.461-17.78 0.19421-0.1455 6.9521-2.8292 15.018-5.9638 8.0655-3.1346 14.896-6.0466 15.178-6.4712 0.28244-0.4246 2.665-1.2541 5.2946-1.8434 4.2745-0.9579 9.9807-3.4668 11.3-4.9685 0.67918-0.7728 9.2409-4.8207 10.196-4.8207 0.42922 0 3.9567-1.9797 7.8389-4.3994 3.8822-2.4196 7.7914-4.3993 8.6873-4.3993 0.89585 0 1.6288-0.4399 1.6288-0.9776s0.87987-0.9777 1.9553-0.9777 1.9553-0.3379 1.9553-0.7509 2.3896-1.7825 5.3103-3.0434c2.9206-1.2607 6.2968-3.3424 7.5027-4.6259 1.2058-1.2836 2.7029-2.3337 3.3268-2.3337 1.5655 0 6.3458-5.517 6.3458-7.3238 0-0.8112 0.43403-1.4749 0.96452-1.4749 1.2495 0 4.1247-6.8648 3.5272-8.4217 2.4278-3.1719 0.90248-3.4993 0.23855-7.7093-0.2281-2.0216-0.83847-2.8946-1.9645-2.81-0.99769 0.075-1.436-0.3917-1.1262-1.1992 0.29619-0.772-0.51763-1.7893-1.9552-2.4443-1.3544-0.6171-2.2495-1.6773-1.989-2.356 0.26044-0.6788-0.90476-2.2155-2.5893-3.415-3.7294-2.6556-4.7196-5.0856-5.4986-13.495-0.33061-3.5687-1.1901-7.3873-1.91-8.486-0.71986-1.0986-1.5105-3.6237-1.7571-5.6112-0.39253-3.1648 0.0251-4.1014 3.3617-7.5396 3.6218-3.732 4.3237-6.9025 1.5281-6.9025-0.62675 0-1.9688-1.5397-2.9823-3.4217-1.1598-2.1535-2.5665-3.4217-3.7956-3.4217-1.8569 0-1.8702-0.091-0.27117-1.8582 1.223-1.3514 1.3678-2.0521 0.53103-2.5693-0.63284-0.3911-1.4922-0.1585-1.9096 0.517-1.1152 1.8044-2.9329 0.2539-2.9329-2.5018 0-1.3125-0.43993-2.3864-0.97763-2.3864s-0.97763-0.9092-0.97763-2.0205c0-1.1112-1.0998-3.4624-2.4441-5.2248-1.3442-1.7624-2.4441-3.7128-2.4441-4.3341 0-0.6214-0.88371-1.1298-1.9638-1.1298-1.8094 0-1.9132-0.4304-1.3205-5.4735 0.36988-3.1471 0.24823-5.7441-0.2862-6.1102-2.271-1.5557-7.2075-9.7017-6.6924-11.044 0.78858-2.0551-1.1347-6.7015-2.774-6.7015-0.74453 0-2.1796-1.0998-3.1891-2.4441-1.0095-1.3442-2.557-2.444-3.4389-2.444-3.292 0-5.5418-5.2074-6.7578-15.642-1.1801-10.126-2.7746-14.903-6.1381-18.391-2.9926-3.103-3.1115-3.5305-2.8561-10.265 0.14658-3.865 0.40773-7.6872 0.58034-8.4937 1.0754-5.0252 2.1591-7.4738 3.9491-8.9232 1.9969-1.617 1.9998-1.6781 0.17665-3.6927-3.8658-4.2717-11.024-1.0531-9.8426 4.4254l0.60698 2.8136-2.0045-2.2847c-1.8239-2.0788-1.8786-2.5282-0.60691-4.9874 1.7268-3.3393 5.5332-5.926 8.7204-5.926 1.3219 0 3.867-1.1877 5.6558-2.6394s3.3947-2.7306 3.5688-2.842c0.82328-0.52712-2.9745-6.2501-4.1475-6.2501-0.73521 0-1.558-0.57655-1.8284-1.2812s-2.3878-1.8493-4.7053-2.5437c-4.4024-1.319-12.611-7.3399-12.607-9.2465 0.002-0.68133 2.3021-1.1716 6.0065-1.2799 8.0834-0.23651 8.7276-1.0404 7.9795-9.9572l-0.60412-7.2-4.4926 0.68925c-2.4709 0.37908-5.5924 0.91268-6.9366 1.1858-2.9272 0.59466-7.9096 0.54195-8.5419-0.0903-1.1556-1.1556 1.1671-2.538 4.2645-2.538 4.42 0 6.8428-1.3417 8.6165-4.7717 1.3768-2.6624 0.6479-5.0046-1.5573-5.0046-1.5287 0-5.9743-5.3173-6.7724-8.1003-0.78626-2.7415-0.73696-2.8114 0.92375-1.3085 4.3803 3.9641 16.923-0.3138 20.031-6.8321 3.2831-6.8848 0.98831-9.2139-3.7883-3.8448-2.686 3.0191-3.5416 3.4586-5.1044 2.6222-2.5515-1.3655-4.7393-4.0445-3.3029-4.0445 0.60354 0 1.0973 0.43993 1.0973 0.97763 0 2.037 3.9382 0.86669 5.5955-1.6628 1.2265-1.8718 1.8096-5.0022 2.0033-10.754 0.2625-7.7959 0.18879-8.1135-1.8826-8.1135-1.1857 0-3.6211 0.52987-5.4121 1.1775-2.7455 0.99277-3.5006 0.93319-4.8137-0.37983-1.4247-1.4247-1.2365-1.6607 2.2093-2.7706 5.4478-1.7548 12.925-6.8 13.604-9.179 0.32104-1.1254 1.1667-3.3659 1.8793-4.979 2.0367-4.6106 4.4148-10.468 4.4148-10.873 0-1.4193-3.0904 0.18885-5.8658 3.0523-2.4052 2.4815-4.1368 3.4088-6.302 3.3748l-2.9855-0.0469 3.3803-1.6639c3.7786-1.8599 8.3985-7.9561 9.4107-12.418 0.36596-1.6131 2.147-5.2511 3.9579-8.0845s3.2925-5.3841 3.2925-5.6683c0-2.2275 13.302-10.589 18.575-11.675 1.8819-0.38783 3.8616-1.0492 4.3993-1.4697 0.5377-0.42053 4.3871-1.31 8.5543-1.9765 8.3959-1.343 10.05-3.2702 3.9105-4.5553-4.6139-0.9657-20.225-1.0149-24.441-0.0769-1.9377 0.43105-3.1773 0.3254-3.1773-0.27081 0-0.5377 1.329-1.2434 2.9532-1.5683 1.6243-0.32486 3.19-0.97376 3.4794-1.442 0.28939-0.46825 1.3262-0.85136 2.304-0.85136 0.97783 0 2.2845-0.61046 2.9037-1.3566 0.61922-0.74612 4.018-2.7381 7.5529-4.4266s7.8337-4.1429 9.5528-5.4542c1.7192-1.3113 6.843-3.3374 11.386-4.5024 9.6086-2.4641 13.637-5.8179 13.637-11.353 0-1.7678 0.28146-3.2142 0.62545-3.2142 1.0911 0 3.2217 3.3551 3.254 5.1243 0.0171 0.93641 0.91095 2.252 1.9864 2.9236s1.9553 1.9838 1.9553 2.9161c0 0.93224 1.2731 2.3533 2.8292 3.158 1.556 0.80466 4.0857 2.6917 5.6214 4.1935 3.4445 3.3683 7.6259 5.2948 9.7353 4.4854 0.8741-0.33543 2.7128-0.65357 4.086-0.70699 2.3014-0.0895 4.545-2.5412 2.3256-2.5412-1.1464 0-7.0001-5.6589-7.0001-6.7671 0-0.41299-0.87987-1.5472-1.9553-2.5204-1.0754-0.97323-1.9617-1.3714-1.9697-0.88475-0.0152 0.9298-1.4424-1.4031-4.8419-7.914l-2.0418-3.9105 2.9602 3.2376c1.6281 1.7807 2.9602 3.5681 2.9602 3.972 0 2.3429 5.9626 5.9863 12.12 7.4055 3.7085 0.85483 6.9607 1.3362 7.2272 1.0698 0.93385-0.93384-1.9113-3.3448-4.6594-3.9484-3.7109-0.81505-9.4708-6.5491-10.28-10.234-0.35864-1.6329-1.1109-2.969-1.6718-2.969-0.67342 0-0.64992-0.44551 0.0692-1.312 0.59887-0.72159 0.81169-1.5892 0.47294-1.9279-0.90724-0.90724 3.3365-2.2588 9.1872-2.9261 5.6859-0.64842 5.7633-0.54417 4.0851 5.4994-0.67976 2.4479-0.70649 4.1305-0.0777 4.8882 0.52737 0.63544 0.88628 1.5953 0.79758 2.133-0.43069 2.6108 12.776 0.7143 15.178-2.1796 1.4621-1.7617-1.453-2.657-4.0776-1.2523-2.63 1.4076-8.3489 0.3482-7.0169-1.2998 0.50418-0.62375 0.91015-2.3388 0.90215-3.8113-0.0254-4.6848 4.2525-7.065 18.072-10.055 4.7416-1.026 7.5766-2.1168 7.5766-2.915 0-2.3183-11.199-0.72399-31.284 4.4537-1.882 0.48514-5.0455 0.89256-7.0301 0.90539-1.9846 0.0128-3.8714 0.44885-4.1928 0.96894-0.32143 0.52008-1.881 0.68628-3.4658 0.36933-3.2952-0.65903-10.195 0.88036-16.193 3.6125-3.7775 1.7208-12.134 9.868-12.134 11.83 0 0.46199-0.6599 0.84-1.4664 0.84-2.1205 0-1.8547-4.7281 0.48104-8.5591 4.1382-6.7872 17.58-12.712 34.225-15.085 7.738-1.1033 17.389-3.9928 23.952-7.171 5.812-2.8146 16.968-4.3356 22.486-3.0655 4.7896 1.1026 15.732 9.7586 19.665 15.555 1.5484 2.2825 3.0655 4.37 3.3714 4.6388 0.30584 0.26885 1.9872 2.5918 3.7362 5.1622 4.6712 6.8646 10.056 12.194 13.088 12.956 1.702 0.42718 2.6662 0.27731 2.6662-0.41444 0-0.59599-0.42904-1.0836-0.95344-1.0836-0.61247 0-0.60253-0.92292 0.0278-2.5808 0.7804-2.0526 0.6254-2.9746-0.75742-4.5047-0.95625-1.0582-1.601-2.7564-1.4328-3.7738 0.16824-1.0174-0.19135-1.8499-0.79909-1.8499-0.62606 0-0.85873-0.7758-0.53683-1.79 0.35546-1.12-0.53479-3.3126-2.3782-5.8573-1.6205-2.237-2.9463-4.4956-2.9463-5.019 0-2.2924-7.2929-4.0714-7.9996-1.9514-0.1878 0.5634-3.0183-1.5263-6.29-4.6438-4.7246-4.5019-7.0346-5.9411-11.227-6.9946-5.8694-1.4749-21.353-2.2828-22.876-1.1937-0.5377 0.38446-2.2974 0.43985-3.9105 0.12311-2.6742-0.52512-2.327-0.76813 3.9381-2.7556 10.479-3.3241 20.65-2.8564 29.136 1.3399 1.5222 0.75275 3.4254 1.3686 4.2292 1.3686 2.8806 0 18.91 13.311 18.91 15.702 0 0.50451 0.47135 0.91729 1.0475 0.91729 1.2772 0 3.324 1.9633 4.0952 3.928 0.31282 0.79695 0.60349 0.94026 0.64594 0.31848 0.0424-0.62179 0.9074-0.91341 1.9221-0.64805 2.169 0.56719 3.596-1.217 2.3259-2.908-0.48713-0.64857-1.4446-2.939-2.1276-5.0898-1.48-4.66-6.3312-10.751-7.8265-9.8273-0.58306 0.36035-1.0601 1.949-1.0601 3.5304s-0.32995 2.8612-0.73322 2.8442c-0.40327-0.0171-4.2222-3.3166-8.4865-7.3322s-8.1871-7.3012-8.7172-7.3012c-0.53015 0-0.72868-0.23523-0.44118-0.52273 0.28751-0.2875 2.3069-0.12186 4.4875 0.36809 2.5277 0.56793 4.3147 0.54085 4.9303-0.0747 0.63562-0.63562 3.083-0.27593 7.1626 1.0527 3.4084 1.11 8.6096 2.1284 11.558 2.263 2.9486 0.13462 7.0605 1.0658 9.1376 2.0694 4.3743 2.1134 5.0452 1.8554 3.5735-1.3745-0.95168-2.0887-3.695-4.2844-8.9836-7.1904-1.9793-1.0876-2.227-2.0504-0.76068-2.9566 0.5476-0.33843 3.1676 1.0654 5.8223 3.1196 2.6546 2.0542 6.3452 4.8348 8.2012 6.179s3.9374 3.8739 4.6254 5.6214c0.68795 1.7475 1.524 3.1773 1.8578 3.1773 1.7587 0 5.8715 14.39 5.8715 20.544 0 2.7748 0.41332 3.8965 1.4358 3.8965 0.92778 0 1.2186 0.56603 0.82185 1.5998-0.41318 1.0767-0.18228 1.456 0.70612 1.1598 2.6472-0.88239 0.51145-17.008-3.6201-27.334-0.83116-2.0773-1.9034-3.7768-2.3827-3.7768-0.47931 0-0.87148-0.64673-0.87148-1.4372 0-0.79045-1.3198-2.413-2.9329-3.6056s-2.9329-2.7135-2.9329-3.3798c0-0.66627-1.64-2.5632-3.6445-4.2155-3.5459-2.9228-3.5769-3.0041-1.146-3.0041 1.3742 0 5.5438 1.058 9.2658 2.3512 6.6327 2.3044 6.8039 2.4504 8.6007 7.3322 1.5646 4.2508 2.2095 4.983 4.3994 4.9944 1.4113 0.007 3.5264 0.27092 4.7003 0.58573 2.4229 0.6498 5.4939 6.2909 4.6384 8.5202-0.31165 0.81216 0.17218 2.6042 1.0752 3.9824 1.2453 1.9006 1.5858 4.3397 1.4097 10.1-0.12767 4.1767-0.17316 8.3898-0.10108 9.3625 0.22676 3.0606 1.8986 0.84398 3.4886-4.6256 1.7626-6.063 1.9926-11.895 0.50546-12.814-0.6945-0.42923-0.63595-1.1024 0.18155-2.0875 0.96155-1.1586 0.94575-1.6152-0.0778-2.2477-0.70643-0.4366-1.0129-1.2331-0.68113-1.77 0.33182-0.53688-0.0321-1.5035-0.8086-2.1479-1.0963-0.90984-1.1642-1.5684-0.3038-2.9461 1.5007-2.403 3.4358-1.4532 4.2087 2.0659 0.34964 1.5919 1.5864 3.7799 2.7482 4.8623 1.8925 1.763 2.1488 3.1858 2.4605 13.663 0.23996 8.0654-0.0129 12.13-0.8147 13.096-1.2245 1.4754-1.6064 9.4969-0.53467 11.231 0.3454 0.55885-0.0108 1.0161-0.79156 1.0161-0.78075 0-1.6498-0.60003-1.9312-1.3334-0.37641-0.9809-2.4071-1.2889-7.6812-1.165-3.9433 0.0927-8.4127-0.24184-9.9321-0.74331-1.8782-0.61989-3.1144-0.55993-3.8616 0.18731-1.3622 1.3622-4.6185 1.4479-4.6185 0.12146 0-0.5377-0.447-0.97763-0.99334-0.97763-0.99828 0-4.739-3.7719-7.1774-7.2372-0.75997-1.08-1.8011-1.5561-2.4824-1.135-0.88388 0.54626-0.89766 1.0575-0.0559 2.0718 0.61464 0.7406 0.95228 1.8423 0.7503 2.4482-0.42279 1.2684-2.335-2.3226-3.1546-5.9241-1.7768-7.8072-4.6388-5.8546-3.6418 2.4846l0.70612 5.9063-3.4626 0.0274c-3.0706 0.0242-9.47 1.9884-10.795 3.3133-0.26885 0.26885-1.5887 0.58644-2.9329 0.70574-3.4827 0.3091-6.0849 0.86353-8.1312 1.7324-1.0315 0.43799-2.241 0.28992-2.884-0.35308-0.60909-0.6091-2.1508-1.1074-3.426-1.1074-1.9537 0-2.269 0.42297-2.0041 2.6885 0.28208 2.4123 0.0377 2.6595-2.379 2.4063-3.0061-0.31495-9.4735 4.1542-9.6042 6.6368-0.0528 1.0027-0.23315 1.08-0.57032 0.24441-0.70803-1.7547-2.2854-1.5073-2.2854 0.35838 0 1.1645-0.65231 1.4557-2.4787 1.1066-1.8105-0.3461-3.3152 0.30756-5.5817 2.4248-1.7066 1.5942-4.5506 3.1336-6.32 3.4207-1.7693 0.28712-3.217 0.90442-3.217 1.3718 0 0.46735-0.89367 0.84972-1.9859 0.84972-1.0923 0-2.2489 0.68518-2.5702 1.5226-0.32135 0.83745-1.1874 1.2912-1.9246 1.0083-0.73717-0.28288-1.3403-0.0882-1.3403 0.43262 0 0.52083-0.60603 0.94696-1.3468 0.94696-0.7407 0-1.8904 0.65506-2.5548 1.4557-0.66447 0.80062-1.624 1.1986-2.1324 0.88446-0.50834-0.31418-2.627 0.60879-4.7082 2.051s-4.5818 2.4686-5.5571 2.2808c-1.2309-0.23705 0.69143-1.9674 6.2854-5.6578 6.2156-4.1006 8.0586-5.8305 8.0586-7.5646 0-2.6217-2.1467-2.9078-5.8658-0.78178-1.3442 0.76844-3.2019 1.4128-4.1282 1.4318-2.1125 0.0434-12.732 4.9586-13.699 6.3404-0.45953 0.65671-0.72365 0.55328-0.73323-0.28711-0.008-0.72246 0.82765-1.5339 1.8575-1.8032 1.8627-0.48712 3.6704-4.8642 2.4945-6.0401-0.33898-0.33897-1.2078 0.19253-1.9307 1.1811-1.2325 1.6856-4.5582 3.819-10.257 6.5801-3.1308 1.5168-11.732 2.1726-11.732 0.89456 0-0.5309-0.62214-0.96528-1.3825-0.96528-1.2868 0-4.9325-3.2151-10.057-8.8688-1.1834-1.3057-2.7232-2.9531-3.4217-3.661-4.4007-4.4593-6.6375-7.0229-6.1277-7.0229 1.2054 0 4.9385 2.2684 7.3017 4.4369 3.087 2.8326 10.826 6.9405 14.664 7.7834 3.9542 0.86849 3.9016-1.2735-0.1443-5.8815-3.2803-3.7361-7.4843-6.3387-10.239-6.3387-0.92533 0-2.377-0.62584-3.2258-1.3908-0.84889-0.76492-3.4847-2.0579-5.8573-2.8733-3.8476-1.3223-4.7459-1.3232-8.3099-0.009-2.1978 0.81057-5.3158 1.8471-6.9289 2.3034-7.2692 2.0562-9.4774 2.9492-12.349 4.9938-2.845 2.0258-2.9425 2.278-1.3353 3.4532 1.0077 0.73685 2.3937 0.95072 3.3096 0.51067 0.86669-0.41641 2.4861-0.68321 3.5987-0.59289 3.659 0.29703 9.6902 1.5878 10.686 2.287 0.5377 0.37743 2.7374 1.2748 4.8882 1.9941 2.1508 0.71931 4.6976 2.1309 5.6595 3.1368 0.96191 1.0059 2.3837 1.829 3.1595 1.829 0.77582 0 2.9961 1.5398 4.934 3.4217s4.3655 3.4217 5.3948 3.4217c1.0292 0 1.7614 0.52625 1.6269 1.1695-0.29764 1.4242 6.8175 4.0012 8.3804 3.0352 1.1871-0.73367 2.9525-1.0697 8.5296-1.6237 1.9071-0.18941 4.4744-0.88329 5.7051-1.5419 3.8669-2.0695 3.2674-0.46661-0.84286 2.2534-2.2712 1.503-3.9304 3.3764-3.9304 4.4378 0 1.0102-0.6599 2.09-1.4664 2.3995-0.80654 0.3095-1.4664 0.18788-1.4664-0.27026 0-2.773-14.161-1.1518-16.776 1.9206-0.89274 1.0486-2.7625 1.9066-4.1549 1.9066-1.3925 0-2.5318 0.37001-2.5318 0.82226 0 0.45224-2.1997 2.0195-4.8882 3.4827-2.6885 1.4633-4.8882 3.073-4.8882 3.5771 0 1.2725 1.1557 1.1509 5.2262-0.54983 2.1312-0.89049 6.5938-1.4664 11.362-1.4664 6.549 0 8.177-0.32457 9.8077-1.9553 1.0754-1.0754 2.3797-1.9553 2.8985-1.9553 0.51878 0 1.3553-0.76988 1.8588-1.7108 0.85094-1.59 2.3284-1.8217 8.5725-1.3442 1.2146 0.0929 0.97992 0.60862-0.97763 2.1484-1.4168 1.1144-2.5759 2.6542-2.5759 3.4217 0 0.76752-0.49947 1.3955-1.1099 1.3955-0.61047 0-2.1864 1.1615-3.5021 2.5811-1.7269 1.8634-2.0621 2.7851-1.2052 3.3147 0.77906 0.48149-0.0331 1.3125-2.3637 2.4184-1.9528 0.92669-3.5506 2.2913-3.5506 3.0325 0 1.2685-2.213 4.3012-6.1102 8.3735-0.94097 0.98323-1.7109 2.4476-1.7109 3.2541 0 0.80655-0.38998 1.4664-0.86663 1.4664-0.47664 0-1.1556 1.9272-1.5088 4.2826-0.45862 3.0584-1.7051 5.4339-4.3602 8.3099-2.0449 2.215-4.2255 4.0273-4.8458 4.0273s-1.1278 0.67919-1.1278 1.5093c0 0.89511-0.69621 1.3924-1.7108 1.222-0.95599-0.16052-1.603 0.25193-1.4664 0.93477 0.13442 0.67213-0.33881 1.222-1.0516 1.222-2.3094 0-5.7878 4.5459-5.1107 6.6792 0.5107 1.6091 0.26617 1.8646-1.3742 1.4356-1.4296-0.37384-1.9954-0.0516-1.9954 1.1363 0 1.3584 0.57449 1.5353 3.1773 0.97877 1.7475-0.37366 3.8232-1.1785 4.6127-1.7885 3.879-2.9972 4.9192-4.0793 4.9192-5.1172 0-0.62121 0.6599-1.6771 1.4664-2.3465 0.80655-0.66938 1.4664-1.943 1.4664-2.8303 0-2.1017 6.5254-5.6999 7.8801-4.3451 1.0863 1.0863 0.23721 4.2425-1.1413 4.2425-0.48016 0-0.87304 0.8539-0.87304 1.8976s-0.47825 2.1932-1.0628 2.5544c-0.58454 0.36127-0.84569 1.4871-0.58034 2.5018 0.26536 1.0147 0.0837 1.8449-0.40365 1.8449-0.48736 0-0.8861 0.80319-0.8861 1.7849 0 0.98166-1.0998 2.8181-2.4441 4.0809-1.3442 1.2628-2.4441 2.6593-2.4441 3.1033 0 1.8576 3.7598 0.59166 6.6578-2.2417 3.0142-2.947 3.1185-2.974 3.1185-0.8102 0 1.2313-0.68597 2.9967-1.5244 3.9231-0.83841 0.92644-1.7254 3.7376-1.9712 6.247-0.30019 3.0655-1.2435 5.4218-2.875 7.1813-1.3355 1.4403-2.4282 3.2484-2.4282 4.0181s-0.61616 2.094-1.3692 2.9429c-2.3016 2.5944-6.57 10.826-6.0499 11.668 0.6035 0.97648 6.4415 0.21215 6.4415-0.84333 0-0.41914 0.59804-0.99157 1.329-1.272 0.902-0.34613 1.2562 0.16992 1.1024 1.6063-0.12461 1.1639-0.28271 2.6664-0.35133 3.3389-0.0686 0.67248-2.6036 3.6428-5.6333 6.6008l-5.5085 5.3781 2.5918 2.5918c2.4209 2.4209 2.4862 2.7085 0.99062 4.3612-0.91262 1.0084-1.3305 2.4749-0.97167 3.4099 0.35035 0.913-0.13528 2.7719-1.095 4.1914-0.94851 1.4029-1.7797 3.3493-1.847 4.3253-0.10027 1.4531 0.51804 1.7274 3.4132 1.5143 4.1928-0.30856 4.2135 0.58371 0.14858 6.4009-3.6376 5.2057-4.6046 8.3964-2.5446 8.3964 0.84278 0 1.5323-0.36582 1.5323-0.81292 0-0.44711 1.9134-1.2508 4.252-1.7859l4.252-0.97299-2.8548 4.23c-1.5701 2.3265-3.2636 4.23-3.7632 4.23-2.0673 0-0.69848 2.2043 2.0017 3.2235l2.91 1.0984-2.1162 2.2525c-3.4089 3.6286-1.5846 6.9536 5.0947 9.2856 4.6049 1.6078 8.9566 1.9373 30.307 2.2953 22.715 0.38084 25.364 0.2533 29.818-1.4354 2.6885-1.0194 5.0304-2.5588 5.2042-3.4209 0.17386-0.86213-0.15609-1.5675-0.73322-1.5675-0.57712 0-1.0493-0.6599-1.0493-1.4664 0-0.80655-0.42613-1.4664-0.94696-1.4664-0.52081 0-0.72379-0.58154-0.45104-1.2923 0.28451-0.74141-0.58558-1.7851-2.0411-2.4482-2.9203-1.3306-2.2952-3.5032 0.73157-2.5425 1.69 0.53637 1.9287 0.30557 1.4757-1.4267-0.29723-1.1366-0.20985-2.0666 0.19417-2.0666 1.0507 0 3.9705 3.3834 3.9705 4.601 0 0.56394 0.65506 1.569 1.4557 2.2335 0.80062 0.66447 1.2313 1.5712 0.95707 2.0149-0.27423 0.44372 0.19816 1.1967 1.0498 1.6733 0.85162 0.47658 1.6738 1.7134 1.8271 2.7486 0.15328 1.0351 0.89554 1.8983 1.6495 1.9182 0.75393 0.0199 2.1916 0.50585 3.1949 1.0799 2.0558 1.1763 19.489 0.70953 22.617-0.60556 4.6664-1.9618 6.3326-2.2628 14.664-2.6493 8.6649-0.40195 15.455 0.47619 25.771 3.3331 3.0487 0.84429 6.524 1.1766 8.3099 0.79458 1.6883-0.36115 7.3043-0.86949 12.48-1.1296 7.6204-0.38304 10.503-0.11058 15.153 1.4324 3.1586 1.048 9.7024 2.1626 14.542 2.4769 8.994 0.58419 12.933 1.2881 14.664 2.6208 0.997 0.76722 11.614 2.5892 20.663 3.5461 4.2352 0.44785 5.3442 0.2075 7.0878-1.5361 1.1369-1.1369 2.397-2.0768 2.8003-2.0888 0.40327-0.0119 1.8114-0.85033 3.1291-1.8631 1.9914-1.5304 2.1878-2.0921 1.1635-3.3263-1.0432-1.2569-0.69205-1.7414 2.2861-3.1546 3.2387-1.5369 4.3459-4.2404 1.4579-3.5599-1.1306 0.26643-0.28415-0.84031 5.1614-6.7485 0.94097-1.0209 1.7109-2.249 1.7109-2.7292 0-0.48018 0.6599-1.1263 1.4664-1.4358 0.80655-0.3095 1.4664-1.3888 1.4664-2.3985s0.63718-3.1132 1.416-4.6744c2.0424-4.0946 3.0448-11.149 1.5842-11.149-0.63815 0-0.90717-0.40954-0.59782-0.91008 0.30936-0.50054 0.13457-1.1745-0.38841-1.4978-0.523-0.32321-0.71346-1.2064-0.42328-1.9626 0.29019-0.75621-0.33439-2.113-1.3879-3.0151-1.1857-1.0152-1.7221-2.38-1.4077-3.582 0.27929-1.068-0.01965-2.2678-0.66421-2.6662-0.64461-0.39839-1.7448-4.3014-2.4448-8.6733-1.1842-7.3956-1.1479-8.062 0.52116-9.5725 0.98666-0.89291 1.7713-2.554 1.7437-3.6914-0.07381-3.0412 0.5575-5.3666 1.7922-6.6013 0.71865-0.71865 0.79037-1.8849 0.20982-3.4118-0.71636-1.8842-0.56522-2.3228 0.80462-2.3349 1.2413-0.011 1.3563-0.22459 0.43558-0.80888-0.97678-0.61984-0.84804-1.3132 0.58724-3.1623 1.0111-1.3026 1.6608-2.878 1.4439-3.5009-0.21694-0.62285 0.06873-1.4187 0.63481-1.7686 2.1056-1.3013 1.0765-5.9097-1.9037-8.5247-1.8415-1.6159-2.9329-3.5159-2.9329-5.1059 0-1.3928-0.38046-2.5323-0.84545-2.5323-0.465 0-1.5996-3.1026-2.5212-6.8947-1.312-5.3982-1.4217-7.2008-0.50536-8.305 0.91482-1.1023 0.87718-1.8917-0.17233-3.6148-0.7385-1.2125-1.2408-3.5244-1.1162-5.1375 0.34051-4.4078 0.3202-5.4392-0.21167-10.754-0.26905-2.6885-0.67661-7.6255-0.90569-10.971-0.22908-3.3456-0.62047-6.4252-0.86976-6.8434-0.2493-0.41825-0.4478-1.9306-0.44115-3.3608 0.0174-3.7315-5.1994-12.303-10.679-17.546-2.7943-2.6738-8.5953-6.4351-14.274-9.2548-7.1363-3.5436-9.7111-5.3278-10.137-7.0243-0.40418-1.6104-1.1642-2.1906-2.6039-1.988-1.4272 0.20086-2.485-0.58788-3.5497-2.6468-0.8341-1.6131-1.6159-3.1056-1.7373-3.3166-0.12143-0.21105-0.84065 0.13073-1.5983 0.7595-1.1107 0.92182-1.4976 0.6648-1.9975-1.3271-0.74415-2.965-2.1722-3.208-3.0268-0.51509-0.68283 2.1514-1.9686 2.5379-2.9829 0.89672-0.35981-0.5822-2.5501-1.8712-4.8673-2.8645-3.7423-1.6042-4.1708-2.114-3.835-4.5628 0.20795-1.5163 0.61825-5.6165 0.91177-9.1115 0.29354-3.495 1.0136-7.5458 1.6-9.0016 1.4711-3.6518-0.47272-17.65-3.0598-22.035-1.0808-1.8319-1.736-3.7014-1.456-4.1544 0.28001-0.45308-0.20721-1.5401-1.0827-2.4156-0.8755-0.8755-1.3824-1.8012-1.1266-2.0571 1.114-1.114 3.3759 0.90396 5.4991 4.9062 1.2602 2.3755 2.8151 4.5201 3.4553 4.7658 1.2721 0.48814 4.634-1.0644 14.126-6.5232 3.4123-1.9624 6.6018-3.5681 7.0878-3.5681 0.48604 0 0.88371-0.38924 0.88371-0.86499 0-0.47573 2.5296-1.2178 5.6214-1.649 9.6279-1.3428 17.842-0.11448 17.842 2.6681 0 0.67368-0.56492 0.59409-1.5426-0.21732-1.6745-1.3897-10.353-1.3369-13.019 0.0792-0.86324 0.45849-2.9993 1.4098-4.7468 2.1139-1.7475 0.70417-3.1773 1.6128-3.1773 2.0193 0 0.40644-0.62858 0.73898-1.3968 0.73898-0.76826 0-3.0295 1.5398-5.0249 3.4217s-4.0379 3.4217-4.5388 3.4217c-1.8298 0-3.5742 2.7289-3.043 4.7603 0.77846 2.9768 2.8696 2.5715 4.384-0.84973 1.0309-2.3289 1.909-2.9329 4.2638-2.9329 1.631 0 3.8855-0.64436 5.0099-1.4319 1.1244-0.78758 2.2954-1.1809 2.6022-0.8741 0.30682 0.30681 2.4664-0.17102 4.799-1.0619 5.2507-2.0053 11.076-1.4857 16.639 1.484 0.93368 0.49844 2.2535 0.91761 2.9329 0.93148 1.7708 0.0362 4.714 6.952 5.5067 12.94 0.76552 5.7822 0.41342 8.835-0.92371 8.0086-0.49701-0.30717-0.90364 0.0236-0.90364 0.73504 0 1.8496-7.1071 4.6779-10.409 4.1422-6.5324-1.0598-7.1679-1.3941-6.9794-3.6712 0.15144-1.8298 0.6543-2.1614 2.7999-1.8465 5.1253 0.75224 8.1256-8.2149 3.59-10.73-1.2098-0.67085-2.6224-1.0954-3.139-0.94334-0.51662 0.15202-2.4963 0.38494-4.3993 0.51759-2.7173 0.18942-3.3936 0.61544-3.1502 1.9847 0.17039 0.95891-0.086 1.4988-0.56991 1.1998-0.48384-0.29903-2.4557 0.52725-4.382 1.8362-3.7643 2.5579-5.0786 5.5371-6.1358 13.908-0.35643 2.8223-1.0522 5.3812-1.5461 5.6865-0.49393 0.30527 0.77067 2.1755 2.8102 4.156 2.3723 2.3037 3.7858 4.622 3.9236 6.435 0.40666 5.351 3.3359 6.2611 8.8036 2.735 2.8736-1.8532 2.2568-3.7046-1.099-3.2994-2.7644 0.33384-3.6103-1.4557-1.1367-2.4049 0.80654-0.30951 1.4664-1.1484 1.4664-1.8642 0-0.80149 0.99187-1.2308 2.5817-1.1174 3.7486 0.26724 3.8775-1.777 0.208-3.297-2.1907-0.90742-3.2581-0.97978-3.5054-0.23765-0.19563 0.58686-1.147 0.86008-2.1142 0.60716-1.2476-0.32626-1.63-1.1322-1.3161-2.7742 0.53797-2.8142 2.9916-3.4401 12.605-3.2152 5.1509 0.1205 7.661-0.27464 9.5319-1.5005 2.4976-1.6365 2.5397-1.6241 2.5397 0.74485 0 3.5938 1.4617 3.8563 5.7333 1.0295 4.3919-2.9064 11.13-3.1389 11.647-0.40197 0.21693 1.147-0.45677 1.4734-2.718 1.3168-2.0069-0.13894-4.0502 0.63785-6.1461 2.3365-1.7268 1.3996-3.259 2.6127-3.4048 2.6959-0.14582 0.0832-0.64253 3.1848-1.1038 6.8925-0.70245 5.6463-0.57999 7.0423 0.75395 8.5949 1.1892 1.3841 1.2831 1.962 0.37057 2.2811-1.6638 0.58196-1.5564 4.175 0.12471 4.175 2.0598 0 3.585-2.3772 3.9199-6.1096 0.16651-1.8556 0.59082-3.84 0.94292-4.4097 0.35208-0.5697 0.3717-1.7354 0.0436-2.5905-0.33824-0.88143-0.09551-1.5547 0.5604-1.5547 0.75585 0 1.0543 1.4406 0.86094 4.1549-0.28602 4.0142-0.19857 4.1549 2.5817 4.1549 2.2577 0 3.0837 0.58039 3.8335 2.6935 0.67898 1.9136 0.61748 3.0318-0.2124 3.8616-0.90577 0.90575-1.1681 0.68503-1.1681-0.98266 0-1.4862-0.59355-2.1508-1.9209-2.1508-3.0983 0-4.2812 3.6547-4.0728 12.584 0.11438 4.9016-0.38993 10.219-1.2526 13.208-2.8529 9.8845-2.1849 39.295 1.2955 57.034 1.0186 5.1916 5.0996 14.295 6.9099 15.414 1.2382 0.76523 1.3004 6.4867 0.10334 9.4974-4.5855 11.533-7.2768 22.387-7.3441 29.619-0.0656 7.0464 0.2026 8.227 2.7082 11.92 1.5296 2.2542 2.5102 4.5368 2.1791 5.0725-0.33108 0.53568 0.17719 1.4105 1.1295 1.944 1.4553 0.81533 1.6994 2.1838 1.5305 8.5812-0.18757 7.1051-0.4526 7.9709-3.9864 13.021-4.7779 6.8285-7.0555 11.445-7.0555 14.301 0 1.2299-0.38312 2.473-0.85136 2.7623-1.8571 1.1477-2.1372 6.901-0.48538 9.9683 1.0491 1.9481 1.3624 3.7177 0.86576 4.891-0.42798 1.0112-0.86452 2.6222-0.9701 3.5801-0.10558 0.95789-1.1131 2.9876-2.239 4.5104-1.2803 1.7318-2.4212 5.469-3.0461 9.978-0.89077 6.4279-0.80812 7.4223 0.76264 9.1764 0.96891 1.082 2.0537 2.7902 2.4107 3.7959 0.52979 1.4928 0.27381 1.7306-1.3933 1.2947-2.3214-0.6071-5.8078 2.295-5.8078 4.8344 0 0.8816-0.68586 2.1046-1.5241 2.7175-1.2101 0.8849-1.3158 1.6624-0.51301 3.7739 0.55612 1.4627 1.6819 2.6594 2.5018 2.6594 0.81985 0 1.4906 0.6599 1.4906 1.4665 0 0.9756-0.97556 1.4664-2.9143 1.4664-2.2098 0-3.0453 0.5317-3.4563 2.1997-0.63605 2.5814 0.01711 12.303 0.88486 13.171 1.3912 1.3911 0.50949 4.9548-1.346 5.44-1.0689 0.2795-2.3997 1.7081-2.9572 3.1746-0.55756 1.4665-1.8827 3.8867-2.9447 5.3781-1.062 1.4915-1.9309 3.3825-1.9309 4.2024 0 1.4449-7.9401 7.495-9.8364 7.495-0.51683 0-3.6151 1.8697-6.8851 4.1549-3.27 2.2853-7.1144 4.8487-8.5432 5.6965-4.2723 2.5351-5.1077 5.3076-4.5434 15.078 0.27946 4.8393 0.71337 14.958 0.96422 22.486 0.53634 16.095 1.8466 24.997 3.9011 26.504 0.81379 0.597 1.4796 1.5729 1.4796 2.1687s1.9626 2.527 4.3612 4.2916c2.3987 1.7645 4.4087 3.6482 4.4668 4.1859 0.11905 1.1026 11.806 10.001 14.41 10.972 0.93018 0.3468 2.2236 1.3688 2.8743 2.2711 0.65071 0.9024 2.6304 2.2071 4.3993 2.8996 1.7689 0.6924 4.536 1.8052 6.1491 2.4727s5.0339 1.7617 7.6018 2.4315 4.8823 1.5631 5.1431 1.985c0.26079 0.4221 3.439 2.207 7.0627 3.9666 3.6237 1.7595 8.5682 4.5714 10.988 6.2485 2.4196 1.6772 6.489 4.1206 9.0431 5.4297 2.5541 1.3092 4.6438 2.7169 4.6438 3.1284s2.5296 1.9003 5.6214 3.3085c3.0918 1.4081 7.0665 3.8218 8.8327 5.3637s3.6468 2.8035 4.1791 2.8035c0.53229 0 1.3813 1.0875 1.8867 2.4168 0.5138 1.3514 2.0115 2.691 3.3975 3.0388 3.2468 0.8149 3.1266 2.5615-0.59264 8.6119-5.3099 8.638-9.7683 13.33-22.162 23.326-15.441 12.453-24.529 18.438-35.155 23.15-4.6942 2.0817-15.354 6.9456-23.688 10.809-19.122 8.8633-38.302 14.221-68.078 19.016-19.905 3.2054-23.198 3.4762-41.061 3.3759-14.734-0.083-24.98-0.7793-42.459-2.8866v-0.0001zm-19.962-113.1c1.0138-2.0163 1.918-4.4965 2.0093-5.5114s0.84147-2.2233 1.667-2.6852c1.112-0.6224 1.3655-1.8494 0.97833-4.736 5.5295-1.5574 7.4433-38.48 8.5075-41.947 0.59598-1.4058 2.6224-3.6557 4.5031-4.9999 3.2626-2.332 7.911-9.3112 7.4067-11.121 1.024-3.6368 6.8183-22.039 0.43978-23.081-1.2689-0.022-3.4623-3.1786-3.4984-5.0351-0.0376-1.936-4.5772-5.0966-6.3456-4.418-0.69759 0.2676-1.6926 0.062-2.211-0.456-0.60514-0.6052-1.3908-0.4028-2.1941 0.5652-0.68829 0.8293-0.9776 1.5079-0.64291 1.5079s-0.28739 0.8959-1.3824 1.9909-1.717 2.4341-1.3823 2.9757c0.33475 0.5416 0.093 1.6062-0.53733 2.3656-0.63028 0.7594-0.86984 1.8276-0.53235 2.3737 0.33749 0.546-0.13426 2.1342-1.0483 3.5292l-1.6619 2.5364-2.2803-4.7085c-1.2542-2.5896-2.2843-5.9653-2.2892-7.5015-0.007-2.0792-0.38378-2.6492-1.4754-2.2304-0.89327 0.3429-1.4664 0-1.4664-0.873-0.00002-0.7897-0.3445-1.4358-0.76553-1.4358-1.1141 0-0.74722-4.0514 0.59176-6.5348 1.6942-3.142 1.5819-3.2415-3.6576-3.2415-4.1753 0-10.256 2.0796-11.81 4.039-0.26926 0.3395-1.791 0.6144-3.3817 0.611-1.5907 0-3.0571 0.4887-3.2588 1.0936-0.20163 0.605-0.98985 1.0998-1.7516 1.0998-0.76174 0-1.385 0.391-1.385 0.8689 0 0.4778-1.5398 1.1577-3.4217 1.5107-1.8819 0.3531-3.4217 1.109-3.4217 1.6799 0 0.5708-0.62501 0.7981-1.3889 0.5049-1.6601-0.637-6.4322 3.5248-6.4322 5.6097 0 1.5594-4.405 6.4457-5.8108 6.4457-0.45857 0-0.78579 2.4463-0.72716 5.4363 0.0587 2.99-0.36467 5.7396-0.94067 6.1102-3.6784 2.3669-4.9415 12.464-2.3853 19.068 1.3286 3.4327 1.3621 5.5578 0.0876 5.5578-0.53769 0-0.97763 0.8328-0.97763 1.8506-1.9783 5.6637-9.2222 13.36-6.7258 20.056 3.7904 4.58 6.7258 8.8503 6.7258 9.7846 1.1882 4.1513 5.7798 5.1574 7.826 7.658 0.0113 2.826 16.45 13.425 20.858 13.448 0.62384 0 2.4192 0.676 3.9897 1.495 3.5739 1.8637 5.3509 0.5781 3.7364-2.7034-1.2068-2.4527-2.5945-6.5685-2.7261-8.0852-0.0466-0.5377-0.39447-2.2974-0.77293-3.9105s-0.86479-4.2527-1.0807-5.8658c-0.21595-1.6131-0.69442-4.7474-1.0633-6.965-0.98343-5.9129 0.9313-6.0136 2.4396-0.1283 0.70895 2.7662 2.1339 6.9394 3.1665 9.2738 1.0326 2.3343 1.9599 5.3165 2.0606 6.627 0.10073 1.3104 0.57874 2.2845 1.0622 2.1646 1.0887-0.2702 2.3821 2.8981 2.4739 6.0595 0.10511 3.6208 2.7943 5.9428 6.8826 5.9428 3.1551 0 3.7958-0.4333 5.4212-3.6662h0.00002zm145.67-17.814c0.44813-8.8812-4.6061-18.61-4.8388-26.744-0.11521-10.058-1.6687-20.184-3.0205-30.27 0.30803-6.802-3.5157-20.844-0.90518-25.895 0.83704-1.195 1.167-2.1793 0.73322-2.1873-0.43375-0.01 0.97108-1.5313 3.1219-3.385l3.9105-3.3705-3.1433-0.036c-4.0153 0.8227-11.764 7.1655-13.564 11.206-5.213 5.7911-6.4347 9.4502-9.2001 18.539-1.4856 10.961-16.673 64.669 15.478 75.28 5.9543-1.3695 9.1291-7.9628 11.428-13.137zm-206.22-57.708c0.86802 0 0.35675-4.8049-0.57236-5.3792-0.53968-0.3335-0.69379-1.7516-0.34249-3.1513 0.67076-2.6725 0.82409-2.6526-4.2977-0.5586-0.67212 0.2748-1.1911-0.098-1.1533-0.827 0.13872-2.6784 1.5102-4.8534 4.154-6.5878 1.4898-0.9772 3.5052-3.2728 4.4787-5.1013 1.1412-2.1434 2.9335-3.7123 5.0452-4.4163 1.8014-0.6006 3.466-1.6642 3.6991-2.3636 0.85011-2.5504 5.5793-5.7707 8.5191-5.8011 1.6448-0.017 3.8444-0.6768 4.8882-1.4663 1.0437-0.7894 2.9976-1.456 4.3418-1.4814 2.9298-0.055 3.8067-0.6229 6.6194-4.2859 2.4561-3.1985 2.0199-5.0356-0.83315-3.5087-1.0539 0.5641-2.3501 0.7573-2.8805 0.4295-0.53038-0.3278-1.2155 0.059-1.5225 0.8586-0.4046 1.0544-1.4738 1.306-3.8863 0.9145-2.5137-0.4079-3.4776-0.1507-3.9389 1.0514-0.3359 0.8754-1.4435 1.5916-2.4614 1.5916-2.2204 0-2.3916-1.2669-0.39498-2.924 0.80062-0.6644 1.1923-1.6342 0.87039-2.1551-0.32244-0.5218-1.7445 0.133-3.1665 1.4578-3.9618 3.6909-6.8556 4.9421-8.4225 3.6416-0.90772-0.7532-1.5138-0.7743-1.9505-0.067-0.34845 0.5639-1.6536 1.0251-2.9002 1.0251-1.2467 0-2.8144 0.6599-3.4837 1.4665-0.66938 0.8065-2.483 1.4664-4.0302 1.4664-1.5473 0-2.8132 0.435-2.8132 0.9665 0 2.2651-3.5025 4.8993-6.5142 4.8993-3.9585 0-5.0816 1.6704-2.3905 3.5553 1.1337 0.7941 2.0612 2.0787 2.0612 2.8548 0 1.6524 1.3544 1.8013 3.9155 0.4307 2.7604-1.4773 3.7842 0.9866 1.1396 2.7427-1.4809 0.9832-2.1221 2.4069-2.1221 4.7115 0 1.8163-0.39287 3.3024-0.87303 3.3024-1.4326 0-2.2192 3.2078-0.97515 3.9767 0.63301 0.3913 0.9089 1.6369 0.6131 2.768-0.29581 1.1312-0.16933 1.8289 0.28107 1.5506 0.45039-0.2784 1.0952-0.059 1.433 0.4875 0.33774 0.5465 1.6366 0.9935 2.8864 0.9935 1.4964 0 2.4583 0.7112 2.8169 2.0823 0.37702 1.4417 1.0381 1.8928 2.1492 1.4664 0.88261-0.3386 1.7887-0.6158 2.0136-0.6158v-0.0004zm-8.3898-35.195c0-0.5377-0.43994-0.9777-0.97764-0.9777-0.53769 0-0.97763 0.44-0.97763 0.9777s0.43994 0.9776 0.97763 0.9776c0.5377 0 0.97764-0.4399 0.97764-0.9776zm212.6-1.3173c1.3016-0.9517 1.4761-1.5183 0.62885-2.0419-1.6489-1.019-4.0118 0.077-4.0118 1.862 0 1.8456 1.0302 1.9003 3.383 0.1799zm-162-10.007c-0.93164-0.9316-2.7994 0.5774-2.1051 1.7007 0.41268 0.6678 0.95951 0.651 1.6616-0.051 0.57559-0.5755 0.77518-1.3178 0.44352-1.6494v-0.0005zm8.0656 2.1168c0-0.2248 0.28667-1.1559 0.63705-2.0689 0.55003-1.4334 0.34971-1.5065-1.4664-0.5344-2.4246 1.2975-2.7872 3.0122-0.63706 3.0122 0.80655 0 1.4664-0.184 1.4664-0.4089zm4.8882-1.1153c0-0.8383-0.43993-1.2522-0.97763-0.9199s-0.97763 1.0182-0.97763 1.5241c0 0.506 0.43993 0.92 0.97763 0.92s0.97763-0.6859 0.97763-1.5242zm6.4121-7.0541c-0.51696-0.5169-6.4121 2.9196-6.4121 3.7379 0 1.8955 1.6696 1.6104 4.077-0.6961 1.5103-1.4469 2.5612-2.8157 2.3351-3.0418zm2.3866 4.6677c0-0.5377-0.43993-0.9776-0.97763-0.9776s-0.97763 0.4399-0.97763 0.9776 0.43993 0.9777 0.97763 0.9777 0.97763-0.44 0.97763-0.9777zm12.487-1.1466c0.8771-0.8771 1.7646-0.865 3.7756 0.051 2.1971 1.0011 2.8839 0.9428 4.1815-0.3552 0.97105-0.9712 1.1864-1.8142 0.57491-2.2508-0.5377-0.3838-1.0971-1.7705-1.2431-3.0816-0.41081-3.6884-1.0248-3.6524-4.2404 0.2487l-2.9854 3.6218-1.7174-2.121c-1.1041-1.3636-2.176-1.8375-3.0015-1.3273-1.0174 0.6288-0.93666 1.0476 0.38899 2.0169 1.0854 0.7937 1.3035 1.4518 0.62097 1.8737-1.2752 0.788-0.39939 2.4704 1.2861 2.4704 0.66727 0 1.7292-0.516 2.3599-1.1467v0.0003zm21.73-2.7555c0-0.356 1.3444-0.4501 2.9876-0.2089 2.1796 0.3199 3.6338-0.1685 5.377-1.8062 1.8758-1.7622 2.3893-1.9138 2.3893-0.705 0 1.2064 0.79325 1.4431 3.6661 1.0943 2.0164-0.2449 5.9634-0.399 8.7712-0.3423 2.8078 0.057 6.0863-0.4225 7.2856-1.0643 3.217-1.7217 16.503-2.3824 17.439-0.8673 0.58573 0.9478 1.366 0.9019 3.5975-0.2113 2.0476-1.0214 3.3003-1.1373 4.451-0.4114 1.2025 0.7584 2.1044 0.5549 3.6206-0.8173 2.2896-2.0721 5.5926-4.12 8.116-5.0322 1.9503-0.705 2.3414-3.3394 0.48882-3.2922-0.67212 0.017-2.0462 0.6552-3.0534 1.4179-1.0838 0.8206-2.931 1.1668-4.5252 0.848-1.4916-0.2983-2.9907-0.059-3.3589 0.5374-0.36579 0.5919-1.167 1.0761-1.7805 1.0761-0.80347 0-0.78734-0.3281 0.0577-1.1732 0.64524-0.6452 1.1732-1.93 1.1732-2.8551 0-1.0742 1.0601-1.915 2.9329-2.3263 2.5351-0.5568 4.2682-2.4709 2.1997-2.4293-1.9234 0.039-8.3488 2.7723-9.0026 3.8302-0.77328 1.2512-4.0308 1.1082-5.0118-0.22-0.31458-0.426-2.37-0.3705-4.5676 0.1233s-5.1323 0.6806-6.5215 0.4149c-1.3892-0.2655-3.0732-0.046-3.7422 0.4891-0.69138 0.5524-2.0604 0.6317-3.1717 0.1838-1.0754-0.4335-1.4054-0.8191-0.73323-0.8568 0.67212-0.038 1.222-0.7287 1.222-1.5352 0-1.8886-0.29474-1.854-4.1313 0.4852-1.7605 1.0733-3.6409 1.9398-4.1786 1.9255-0.5377-0.015-0.20775-0.4745 0.73322-1.0226 0.94097-0.548 1.7109-1.4145 1.7109-1.9255 0-1.5211-2.9466-1.0533-3.5682 0.5665-0.36974 0.9635-1.2486 1.2815-2.4703 0.8937-1.2498-0.3967-2.4995 0.094-3.665 1.4373-0.97273 1.1216-2.7206 2.0392-3.8843 2.0392-1.1636 0-2.3689 0.6599-2.6784 1.4665-0.73369 1.9119-2.3088 1.8919-2.3088-0.029 0-1.1739-1.1047-0.8877-5.1326 1.3294-2.8229 1.5539-5.697 2.6255-6.3869 2.3813-0.68986-0.2442-2.0097-0.098-2.9329 0.3256-0.92323 0.4232-2.3025 0.7966-3.065 0.8296s-1.5909 0.6736-1.8409 1.4236c-0.36164 1.0849 0.3713 1.2317 3.586 0.7175 2.2347-0.3573 4.0406-0.2507 4.0406 0.2386 0 1.0701-2.9488 2.456-4.6442 2.1826-0.77569-0.1251-1.0702 0.6225-0.80587 2.0454 0.22912 1.2335 0.44928 2.2939 0.48923 2.3564 0.27205 0.4257 10.827-3.0126 10.827-3.527v-0.0001zm-81.47-2.3307c6.5484-5.1238 6.8445-5.243 11.832-4.7639 4.2741 0.4107 5.1151 0.23 5.1151-1.0993 0-0.8749-0.65047-1.5908-1.4455-1.5908-2.1062 0 0.12752-4.5711 2.5423-5.2026 1.0098-0.2641 1.8361-1.009 1.8361-1.6553 0-0.7997-0.85885-0.9517-2.6885-0.4758-1.4787 0.3846-5.0236 0.8394-7.8775 1.0107-2.854 0.1713-5.7586 0.7841-6.4547 1.3619-0.69611 0.5777-4.0252 1.3388-7.398 1.6913-4.5393 0.4744-6.799 1.2556-8.6986 3.0067l-2.5662 2.3657 4.7715-0.5613 4.7715-0.5612-0.60994 3.176c-0.33545 1.7469-0.88415 4.386-1.2193 5.8646-0.35506 1.5665-0.19552 2.6885 0.38226 2.6885 0.54541 0 4.0141-2.3649 7.7081-5.2552zm210.61 3.0555c0.54892-7.3989-1.2301-13.694-3.6116-12.78-0.66947 0.257-1.7064-0.4468-2.3042-1.5639-0.59785-1.1171-1.5299-2.0311-2.0711-2.0311-0.54126 0-1.9285-0.8799-3.0828-1.9553s-3.2256-1.962-4.6029-1.9702c-1.9867-0.012-2.2011-0.2139-1.0377-0.9776 1.2501-0.8206 1.2632-1.0936 0.0887-1.8499-0.75778-0.4879-1.9676-0.6608-2.6885-0.3842-0.7209 0.2767-1.3107 0.016-1.3107-0.5793 0-0.5952-0.73524-1.0822-1.6339-1.0822-0.89863 0-2.3658-0.6623-3.2603-1.4718-1.3333-1.2067-2.211-1.2681-4.8702-0.3411-2.7815 0.9696-3.4213 0.8881-4.489-0.5721-0.91147-1.2465-1.8539-1.497-3.5166-0.9346-2.9457 0.9963-13.834 0.4539-14.57-0.7257-0.31183-0.5-1.1917-0.6843-1.9553-0.4095-0.76356 0.2748-4.6878-0.083-8.7205-0.7948-4.9009-0.8652-8.1427-0.9878-9.7763-0.3695-3.2589 1.2331-10.667 1.4801-11.038 0.368-0.49178-1.4753-7.3648 1.5537-7.865 3.4662-0.25643 0.9806-0.14521 1.9814 0.24716 2.2239 0.39238 0.2425 4.5758 0.4409 9.2966 0.4409 6.9745 0 8.8127 0.3138 9.8074 1.6742 0.6733 0.9207 1.8648 1.4283 2.6479 1.1278 0.78305-0.3005 2.4523 0.2295 3.7094 1.1778 1.2572 0.9483 3.0997 1.5112 4.0946 1.2511 0.9949-0.2602 1.8089-0.02 1.8089 0.5327 0 1.1168 3.9288 1.8636 14.176 2.6947 9.6347 0.7815 14.901 2.5709 28.991 9.8513 1.4272 0.7374 3.5453 1.3408 4.7069 1.3408s3.2225 1.3198 4.5798 2.9329c2.5619 3.0446 8.0669 4.1861 8.2505 1.7108zm-162.38-3.2349c0-0.2372-0.68587-0.4312-1.5242-0.4312-0.83828 0-1.2478 0.4471-0.91008 0.9936 0.55804 0.9029 2.4342 0.4694 2.4342-0.5624zm130.32 0.5465c3.0079 0 3.0278-0.03 0.97711-1.4663-1.1513-0.8065-2.899-1.2042-3.8836-0.8839-0.98466 0.3204-2.3681 0.7571-3.0743 0.9706-0.70621 0.2134-0.99166 0.8611-0.63434 1.4393 0.35731 0.5782 1.301 0.8013 2.0972 0.4957 0.79613-0.3055 2.8292-0.5554 4.518-0.5554zm-118.1-2.9329c0.33232-0.5377-0.0816-0.9777-0.91993-0.9777-0.83828 0-1.5242 0.44-1.5242 0.9777s0.41397 0.9776 0.91993 0.9776c0.50597 0 1.1918-0.4399 1.5242-0.9776zm105.12-0.9805c1.2265-1.9401 1.1859-2.5015-0.26685-3.6926-1.7536-1.4377-6.1484-1.8928-5.9169-0.6127 0.1152 0.6368-1.7541 1.1377-4.6257 1.2393-5.4501 0.1929-8.7979 1.2405-10.494 3.2836-0.99267 1.1961 0.3843 1.3854 9.6095 1.3211 8.4391-0.059 10.968-0.3917 11.693-1.5387zm-195.66-3.8302c1.3434-5.2417 2.2828-5.9433 7.9577-5.9433 4.2823 0 6.0901-1.6249 2.7062-2.4324-5.5005-1.3126-9.1158-1.1375-13.125 0.6359-3.8507 1.7033-4.2682 2.2182-4.2682 5.264 0 1.8568 0.43993 3.3759 0.97763 3.3759s0.97763 0.8799 0.97763 1.9553c0 1.2354 0.65176 1.9553 1.7704 1.9553 1.3019 0 2.0967-1.273 3.0034-4.8107zm75.41-1.6464c2.6786-1.4006 4.8702-2.8403 4.8702-3.1994s1.4897-1.4551 3.3104-2.4356c2.6456-1.4248 3.7281-1.5592 5.3907-0.6694 2.8521 1.5264 9.207 0.3167 8.467-1.6117-0.78204-2.038 0.4452-6.2255 1.7617-6.0113 2.6335 0.4284 8.4439-1.4365 8.4439-2.7103 0-1.4132-0.62679-1.399-12.22 0.2754-2.6885 0.3884-6.4438 0.5937-8.3452 0.4563-2.4393-0.1762-3.9774 0.3252-5.2244 1.7032-0.97206 1.0742-2.3037 1.7472-2.9593 1.4956-1.4932-0.573-3.5115 1.7134-6.8076 7.7118-2.388 4.3458-3.2627 7.5419-2.064 7.5419 0.27874 0 2.6984-1.146 5.377-2.5465zm-78.764-9.1099c0.30676-0.4962 1.8725-1.1911 3.4794-1.5441 3.2663-0.7173 3.6353-1.6099 1.4242-3.4449-1.1837-0.9825-2.3079-1.0001-5.3654-0.084-3.7284 1.117-4.129 1.8859-2.9861 5.7311 0.19579 0.6586 2.9602 0.1311 3.4479-0.6581v0.0001zm52.154-1.2483c1.6877-1.6878 1.446-2.7374-0.63059-2.7374-0.99206 0-2.6 0.8799-3.5732 1.9553-1.7238 1.9048-1.7076 1.9552 0.63058 1.9552 1.32 0 2.928-0.5279 3.5732-1.1731zm-52.597-5.6703c0-0.5377-0.87986-0.9776-1.9553-0.9776s-1.9553 0.4399-1.9553 0.9776 0.87987 0.9776 1.9553 0.9776 1.9553-0.4399 1.9553-0.9776zm63.48-1.8618c1.112-1.5617 2.0218-3.3816 2.0218-4.0444 0-0.8835 1.6948-1.0689 6.3546-0.6949 6.7236 0.5398 7.544-0.056 4.8962-3.553-1.6257-2.1472-8.3997-2.5604-10.699-0.6523-0.8117 0.6735-2.3434 0.9036-3.5233 0.5291-1.4652-0.465-2.6621-0.046-4.0157 1.4073-1.0606 1.1385-2.3421 1.8142-2.8477 1.5018-1.9659-1.215-0.11382 3.0701 2.7954 6.4679 2.1273 2.4846 2.6325 2.3878 5.0174-0.9615zm-24.583-3.7921c2.7244-1.7811 2.364-3.3335-1.0542-4.5417-3.3743-1.1926-7.5362 0.647-7.5362 3.3313 0 1.138 0.64637 1.9761 1.5242 1.9761 0.86547 0 1.235 0.4678 0.8552 1.0824-0.85072 1.3765 3.0572 0.2136 6.211-1.8481zm80.773-1.6783 1.6014-2.4441h-4.7478c-2.6113 0-5.0255-0.2778-5.3649-0.6172-0.94808-0.9481-7.5256-1.1446-6.9465-0.2076 0.28036 0.4537 0.90418 0.8248 1.3863 0.8248 0.48208 0 2.4972 1.0998 4.4781 2.4441 1.9808 1.3442 4.5894 2.444 5.7968 2.444 1.2628 0 2.8754-1.0381 3.7966-2.444zm83.189-1.4665c0.33231-0.5377 1.8101-0.9776 3.2839-0.9776s3.2259-0.5462 3.8935-1.2138c0.96674-0.9668 1.3966-0.9183 2.1112 0.238 0.96021 1.5537 6.4687 1.4969 8.3987-0.087 0.58717-0.4817 1.3278-0.6156 1.6458-0.2976 0.31802 0.318 1.1395 0.2313 1.8254-0.1927 0.68599-0.4239 3.1405-0.6543 5.4544-0.5121 2.5155 0.1547 5.7645-0.4592 8.0801-1.5266 5.5515-2.5594 5.1161-4.0041-1.3458-4.4663-1.9391-0.1387-3.5265-0.5958-3.5276-1.016-0.005-1.7236-3.1418-1.796-4.9988-0.1154-1.5026 1.3599-1.9135 1.449-1.6744 0.363 0.22955-1.0428-0.4233-1.3615-2.3718-1.1576-1.4787 0.1549-2.6885-0.1751-2.6885-0.7332 0-1.5259-2.0623-1.2208-4.078 0.6034-1.6636 1.5055-1.7878 1.5055-1.7878 0 0-0.89-0.6599-1.6181-1.4664-1.6181-0.80654 0-1.4664 0.4399-1.4664 0.9776s-0.43994 0.9777-0.97764 0.9777-0.97763-0.7333-0.97763-1.6294-0.28948-1.3399-0.64327-0.9861c-0.35381 0.3538-1.2337 0.1533-1.9553-0.4456-0.97199-0.8066-1.6981-0.7683-2.8021 0.1478-0.81954 0.6802-1.7621 0.9647-2.0946 0.6322-0.33248-0.3325-0.048-1.2751 0.63214-2.0946 2.1846-2.6323-0.73802-1.7123-5.3603 1.6872-5.0331 3.7017-5.4213 5.2679-1.7079 6.8906 1.4787 0.6461 2.7325 1.7248 2.7862 2.3969 0.0538 0.6721 0.16375 2.1019 0.24441 3.1773 0.15251 2.0335 2.5156 2.681 3.5684 0.9776v0.0004zm-190.37-6.852c1.2221-1.8036 2.0539-3.7495 1.8485-4.3239-0.65055-1.8195-10.425-0.402-10.425 1.5117 0 1.8289 4.0626 6.8434 5.2333 6.4594 0.61674-0.2021 2.1212-1.8434 3.3433-3.6472zm228.09 2.6283c-0.50433-0.5043-1.6222-0.426-2.6721 0.1873-1.5839 0.9251-1.4777 1.0314 0.86706 0.867 1.5542-0.1089 2.3094-0.55 1.8051-1.0542v-0.0001zm-74.309-1.679c1.0426-0.558 4.8042-1.2063 8.3589-1.4408 3.5548-0.2344 7.0293-0.896 7.7212-1.4702 0.69194-0.5743 1.4108-0.6518 1.5975-0.1723 0.40056 1.0287 8.6494 2.263 8.6494 1.2943 0-0.3643-1.6498-1.471-3.6661-2.4594-2.0164-0.9885-4.473-2.2152-5.4592-2.7261-0.98618-0.5109-3.0759-0.6471-4.6438-0.3027-2.1237 0.4664-2.8507 0.2655-2.8507-0.7877 0-1.121-1.1881-1.326-5.7345-0.9895-5.1597 0.382-5.7875 0.2219-6.2631-1.5966-0.41059-1.5702-1.3126-2.0213-4.0418-2.0213-1.9323 0-3.5132-0.4146-3.5132-0.9214 0-0.5069 0.94995-0.7386 2.111-0.515 1.2131 0.2336 2.6054-0.2697 3.2734-1.1832 1.3338-1.824 3.8196-0.8242 3.0348 1.2208-0.72047 1.8775 0.96704 2.654 3.1864 1.4663 1.3672-0.7318 2.683-0.595 4.8959 0.5089 1.6644 0.8303 3.4717 1.2344 4.0162 0.8978 0.54455-0.3365 0.99009-0.146 0.99009 0.4234 0 1.8084 5.8648 1.2043 6.5584-0.6756 0.34718-0.9409 1.0496-1.9915 1.561-2.3347 1.6008-1.0742-0.19844-2.6408-2.3782-2.0709-1.3569 0.3549-2.3995-0.031-3.0046-1.1123-0.8492-1.5175-1.2882-1.4538-5.2533 0.7624-2.3797 1.33-4.3267 1.9779-4.3267 1.4396 0-2.4817-5.5526-5.1834-8.4042-4.0892-0.75469 0.2896-1.3722 1.0643-1.3722 1.7216s-0.76989 1.1917-1.7109 1.1876c-6.2378-0.027-7.317 0.3366-6.8048 2.2953 0.28108 1.0749 0.13164 2.1888-0.3321 2.4755-0.46373 0.2865-0.59533 1.1669-0.29244 1.9562 0.3029 0.7893 0.0637 1.4351-0.53151 1.4351-2.1194 0-1.0404 2.9062 1.2968 3.4928 1.3084 0.3283 2.1774 1.1226 1.9309 1.7648-0.25258 0.6582 0.94892 1.6256 2.7536 2.2169 4.367 1.4311 6.4151 1.5044 8.6477 0.3096zm-171.57-3.4777c4.3837-2.569 5.5386-4.3064 2.8626-4.3064-0.80654 0-1.4671 0.3299-1.4679 0.7332-0.00078 0.4033-1.7305 0.8517-3.8438 0.9964-3.5472 0.2428-3.8662 0.055-4.1535-2.4441-0.48173-4.1913-3.1054-3.4486-3.3873 0.9589-0.17177 2.685 0.15127 3.6661 1.2071 3.6661 0.7929 0 1.6949 0.6599 2.0044 1.4664 0.77441 2.0181 1.7789 1.8594 6.7785-1.0705zm158.79 1.5594c0-0.5377-0.41397-0.9777-0.91993-0.9777-0.50597 0-1.1918 0.44-1.5242 0.9777-0.33232 0.5377 0.0816 0.9776 0.91993 0.9776 0.83828 0 1.5242-0.4399 1.5242-0.9776zm-55.725-2.4441c1.0142-1.222 0.88454-1.4665-0.77797-1.4665-2.6613 0-5.0878 0.9825-5.0878 2.0599 0 1.4438 4.5578 0.9827 5.8658-0.5934zm39.105-0.4189c0-1.037-0.68519-2.5707-1.5226-3.4082-0.94402-0.944-1.2227-2.0587-0.73323-2.9333 0.76397-1.3651 1.1487-1.5495 3.2335-1.5495 0.5377 0 0.97764-0.6599 0.97764-1.4664 0-1.8347-6.4814-2.0581-7.0918-0.2445-0.32132 0.9548-0.76418 0.9308-2.0243-0.1093-0.97116-0.8016-2.2987-1.035-3.3363-0.5863-0.94782 0.4098-2.6032 0.8919-3.6786 1.0713-7.1608 1.1952-8.3099 1.5254-8.3099 2.3878 0 0.5303 0.64094 1.21 1.4243 1.5107 0.99545 0.3819 1.253 1.403 0.85543 3.391-0.69521 3.4759 1.129 3.8007 4.8608 0.8653l2.5161-1.9791 5.6812 2.3827c7.058 2.9602 7.1477 2.9686 7.1477 0.6678zm57.814-2.1206c2.3034-1.6402 2.6511-2.3263 1.7371-3.4277-1.861-2.2424-10.67-1.343-10.67 1.0895 0 1.3497 3.6004 4.3889 5.1992 4.3889 0.46947 0 2.1496-0.9228 3.7335-2.0507zm55.775-0.9453c0.1908-0.5723 2.1697-1.2852 4.3975-1.584 4.3443-0.5826 6.4527-3.5243 3.3759-4.7101-1.4586-0.5621-1.4489-0.7041 0.10804-1.5782 2.3509-1.3198 2.1648-3.0944-0.24441-2.3298-1.168 0.3707-1.9553 0.1757-1.9553-0.4843 0-0.6078-0.98503-0.9674-2.189-0.7991-1.426 0.1992-2.1927-0.2049-2.1997-1.1593-0.0059-0.8059-0.67061-1.5088-1.4772-1.562-0.80655-0.053-1.9064-0.2289-2.4441-0.3904-1.1262-0.3383-3.1249-0.63-5.7354-0.8371-1.2963-0.1028-1.6817-0.6922-1.3306-2.0349 0.46707-1.7861-0.0158-1.8728-8.7641-1.5723-9.1721 0.315-9.2533 0.2975-8.708-1.8751 0.82518-3.2878-0.2889-3.6439-4.3171-1.38-3.4516 1.94-3.7645 1.9604-6.1447 0.4008-2.0506-1.3436-2.9069-1.4297-4.6957-0.4723-1.8066 0.9669-2.3905 0.8937-3.3506-0.41938-0.63954-0.87462-1.6902-1.5902-2.3348-1.5902-0.64459 0-0.91886-0.40954-0.60951-0.91008 1.2659-2.0482-1.6934-2.0162-5.0439 0.0545-4.1179 2.545-10.968 3.5403-12.072 1.7542-0.45974-0.74387-1.4036-0.89134-2.541-0.39702-0.99523 0.43256-2.2456 0.68125-2.7786 0.55264-2.0147-0.48607-14.184 3.6943-14.184 4.8725 0 1.8852 2.0606 2.345 15.153 3.3811 4.3016 0.3404 8.7009 0.9662 9.7763 1.3907 3.9285 1.5507 11.375 2.9883 15.479 2.9883 2.3143 0 6.3774 0.619 9.0291 1.3757 2.6517 0.7566 7.4608 1.6733 10.687 2.0373 11.091 1.2512 15.352 2.4789 14.681 4.2295-0.33463 0.872-0.30628 1.2833 0.063 0.914 0.36927-0.3692 1.7716 0.1941 3.1164 1.2519 2.6388 2.0756 6.6914 2.5687 7.2534 0.8825h0.000039zm-150.32-5.9096c-0.62072-1.0044-7.2662-1.2005-7.2662-0.2145 0 0.361 0.70847 1.4391 1.5744 2.3959 1.4444 1.596 1.7666 1.6137 3.9021 0.2145 1.2803-0.8389 2.0856-1.917 1.7896-2.3959zm-125.25-6.1101c-0.13195-1.8508 0.28672-2.5817 1.479-2.5817 0.91469 0 2.0974-0.9554 2.6281-2.123 1.4564-3.2038 5.7691-6.0117 8.0981-5.2724 1.9437 0.6169 4.5694 5.6913 4.2062 8.1286-0.26692 1.7909 5.433 1.5536 6.127-0.2551 0.68339-1.7808-0.28794-7.1631-1.4188-7.862-0.44477-0.2749-0.56084-1.1456-0.25795-1.9349 0.34819-0.90736-0.0474-1.4351-1.0758-1.4351-1.4855 0-1.4946-0.18832-0.10459-2.1728 1.9997-2.8549 1.9198-3.693-0.35191-3.693-1.0306 0-2.0541-0.54089-2.2744-1.202-0.53664-1.6099-11.306-1.6758-11.921-0.0729-0.24799 0.64629-2.7669 1.3021-5.6322 1.4664-6.0779 0.34857-7.1601 2.5937-1.9063 3.9551 2.7816 0.72078 3.1805 1.1738 2.6375 2.995-0.35184 1.1802-0.89617 3.9056-1.2096 6.0564-0.31344 2.1508-0.99963 4.4547-1.5249 5.12-1.2277 1.555-0.13513 4.4637 1.464 3.8975 0.67183-0.2378 1.1387-1.5942 1.0375-3.0142zm135.99 2.6907c1.5909-0.6105 2.2032-4.2948 0.71377-4.2948-0.45794 0-2.2176-1.3235-3.9104-2.9412-2.6792-2.5604-3.331-2.7831-5.0332-1.7201-1.0755 0.6716-1.9554 1.7159-1.9554 2.3206s-0.88932 2.23-1.9763 3.6118l-1.9763 2.5124 3.1983 0.3959c5.5603 0.6882 9.3426 0.7281 10.939 0.1154zm-49.634-17.028c1.1509 1.0523 11.127 4.2311 11.647 3.7112 0.23231-0.23233-0.38577-2.8068-1.3735-5.721-1.3516-3.9876-2.322-5.3764-3.9219-5.6129-1.2495-0.18473-1.8524-0.75705-1.4623-1.3882 0.43342-0.70129 0.0677-0.84519-1.054-0.41475-4.2232 1.6206-6.4382 1.7295-8.3232 0.40913-1.4229-0.99665-3.2632-1.2137-6.3367-0.74724-2.3822 0.36154-4.9884 0.28964-5.7914-0.15976-1.89-1.0577-6.5031 0.69007-6.5031 2.4638 0 0.79864 1.9239 1.8841 4.6438 2.62 6.4001 1.7316 7.0878 2.4838 7.0878 7.7532 0 2.533 0.27829 4.8838 0.61842 5.224 0.34014 0.3401 2.7152-1.523 5.2778-4.1401 2.5627-2.6172 5.034-4.416 5.4918-3.9974zm86.196 1.7263c0.32796-2.8414-1.1501-3.3624-5.1228-1.8059-3.5751 1.4008-6.4464-1.023-11.298-9.5369-0.58547-1.0275-1.8982-0.47921-5.766 2.4084-2.7543 2.0563-5.0079 4.0848-5.0079 4.5077 0 0.42292 1.3198 0.76895 2.9329 0.76895 1.8174 0 2.9329 0.50441 2.9329 1.3261 0 0.78344 1.1002 1.3456 2.6885 1.3736 4.7386 0.0837 11.976 1.4397 11.976 2.2439 0 0.89771 2.7398 1.763 4.8882 1.5438 0.82196-0.084 1.6024-1.3274 1.7758-2.8297zm-177.75-10.99c0.7644-0.92105 2.9178-1.4664 5.79-1.4664 2.5151 0 5.1227-0.54992 5.7946-1.222 0.67194-0.67212 2.1897-1.2907 3.3728-1.3747s3.9109-0.43767 6.0617-0.78603 5.3403-0.84952 7.0878-1.1137c1.7753-0.26837 3.1773-1.0617 3.1773-1.7979 0-0.72466 0.6599-1.5708 1.4664-1.8803 1.5591-0.59826 2.0604-3.557 0.60278-3.557-1.6736 0-1.95-5.3274-0.36786-7.0895 1.4025-1.5621 1.3758-2.013-0.3042-5.1326-1.1643-2.162-2.5691-3.4245-3.8192-3.4321-1.1764-0.007-2.872-1.3931-4.186-3.4217-1.2148-1.8753-2.7199-3.4096-3.3447-3.4096-0.62484 0-1.8388-0.636-2.6978-1.4133-1.2137-1.0984-2.4696-1.2093-5.6361-0.49788-3.5092 0.78846-4.7559 0.57313-8.9872-1.5521-2.7021-1.3572-5.1757-2.8929-5.497-3.4126-2.2076-3.5719-11 2.6924-14.7 10.474-3.9212 8.2455-5.8649 24.187-3.3226 27.25 1.8488 2.2277 2.2413 1.0461 2.0448-6.1561-0.15716-5.7588 0.19871-7.2588 2.7765-11.704 1.6262-2.804 3.8366-5.5691 4.9118-6.1446 1.0753-0.57549 1.9551-1.7059 1.9551-2.5121 0-1.2004 0.91683-1.3441 5.0642-0.79393 2.7853 0.36948 6.1948 1.2618 7.5766 1.9829 1.3818 0.72112 4.141 1.3138 6.1315 1.3172 2.8564 0.005 4.329 0.73704 6.9878 3.4748 3.2702 3.3672 5.1314 8.5518 4.0598 11.309-0.74059 1.9054-5.2157 3.8751-5.9831 2.6335-0.33289-0.53863-1.8885-0.79096-3.457-0.56076-2.3335 0.34248-3.4673-0.26276-6.2388-3.3306-1.8629-2.062-3.3871-4.3539-3.3871-5.093 0-2.1025-2.72-3.9457-4.1549-2.8155-0.67212 0.52939-2.4319 1.2516-3.9105 1.6048-1.9914 0.47572-2.6885 1.2401-2.6885 2.948 0 1.2682-0.65623 2.8504-1.4583 3.516-1.2714 1.0551-1.153 1.5731 0.92336 4.0407 2.2462 2.6695 2.3019 3.0214 0.97823 6.1894-1.3854 3.3156-0.63091 5.2767 1.5189 3.9481 0.5415-0.33466 1.2485 0.0793 1.571 0.91994 0.74216 1.934 2.7106 1.9625 4.2878 0.062v-0.00002zm89.942-1.4664c0-0.5377-0.43993-0.97763-0.97763-0.97763s-0.97763 0.43993-0.97763 0.97763 0.43993 0.97763 0.97763 0.97763 0.97763-0.43993 0.97763-0.97763zm-58.809-41.666c1.7967-0.35934 3.2728-1.3823 3.6332-2.5178 0.87371-2.7528-0.23192-3.3329-2.478-1.3002-1.636 1.4806-2.0271 1.5317-2.49 0.32554-0.30201-0.78701-0.12337-2.5507 0.39695-3.9192 0.82734-2.176 0.61765-2.648-1.671-3.7609-1.4394-0.69993-2.947-1.1958-3.3502-1.102-1.9747 0.45948 0.01-5.2353 2.9329-8.4157 0.67212-0.73132 1.222-1.9896 1.222-2.7961 0-0.80654 0.6599-2.1264 1.4664-2.9329 1.6629-1.6629 1.9609-4.2597 0.48882-4.2597-0.5377 0-1.9675 0.98986-3.1773 2.1997l-2.1997 2.1997-0.31978-2.256c-0.39976-2.8202-2.4992-2.2803-2.9432 0.75682-0.18155 1.242-1.4147 3.4072-2.7402 4.8116-1.859 1.9695-2.2815 3.2241-1.8476 5.4863 1.1604 6.0503 1.0979 9.2875-0.17934 9.2875-0.69152 0-1.2573 0.6599-1.2573 1.4664 0 0.80654 0.62303 1.4664 1.3845 1.4664 0.76148 0 1.9687 1.3198 2.6827 2.9329 1.3804 3.1184 3.7983 3.6572 10.446 2.3277zm-23.793-5.2479c-0.32801-0.53074 0.30593-1.9335 1.4088-3.1172 1.1028-1.1837 2.0052-2.9492 2.0052-3.9232 0-0.97401 0.34631-1.7709 0.76959-1.7709 0.42326 0 0.83917-0.92377 0.92422-2.0528 0.0851-1.1291 0.78758-2.5588 1.5612-3.1773 0.77361-0.61845 1.642-2.2243 1.9298-3.5686 0.28775-1.3442 0.83169-3.4405 1.2088-4.6583 1.3285-4.2908-2.6013-1.1611-5.118 4.0759-4.0234 8.3725-5.8584 11.316-6.5954 10.579-0.38768-0.38769-0.3896 0.55126-0.004 2.0865 0.46529 1.8539 0.28574 3.0478-0.5346 3.5548-1.5124 0.9347-0.4387 2.9373 1.5748 2.9373 0.80655 0 1.1981-0.43424 0.87007-0.96497h-0.00038zm-11.322-3.6571c1.6522-2.0045 3.0041-4.215 3.0041-4.9124 0-0.69734 1.0324-1.6604 2.2942-2.1401 1.2618-0.47974 3.0347-2.4328 3.9398-4.3402 0.90512-1.9074 2.4581-4.037 3.451-4.7325 0.99297-0.6955 3.4025-3.2408 5.3546-5.6563s4.0304-4.9706 4.6186-5.6781c1.7695-2.1286 0.34898-2.3244-3.382-0.46622-1.9665 0.9794-3.5295 2.4938-3.5429 3.4328-0.0155 1.0875-0.54136 1.4817-1.4905 1.1174-0.80655-0.30951-1.4664-0.0847-1.4664 0.49963 0 0.58429-1.6498 1.9058-3.6661 2.9366-2.0164 1.0308-5.1019 3.249-6.8567 4.9292-2.506 2.3995-3.0601 3.5749-2.5825 5.4779 0.37327 1.4872 0.18964 2.4229-0.47551 2.4229-0.59599 0-1.0836 0.82856-1.0836 1.8412 0 1.019-0.87311 2.0696-1.9553 2.3526-2.7438 0.71753-2.6621 6.5602 0.0918 6.5602 0.40893 0 2.0954-1.64 3.7476-3.6445h-0.00004zm40.144-4.6527c1.2952-1.5607 0.59467-6.3673-0.92803-6.3673-1.1549 0-1.9431 1.3009-2.9811 4.92-0.70359 2.4533-0.55924 2.9011 0.9353 2.9011 0.97202 0 2.3102-0.65419 2.9738-1.4538zm-7.8105-0.99033c0-0.80655-0.43993-1.4664-0.97763-1.4664s-0.97764 0.6599-0.97764 1.4664c0 0.80655 0.43994 1.4664 0.97764 1.4664s0.97763-0.6599 0.97763-1.4664zm-35.195-2.485c0-0.44516-0.44929-1.9911-0.99842-3.4354-0.87539-2.3024-0.5742-3.1438 2.4441-6.8272 1.8934-2.3106 3.4425-4.4885 3.4425-4.8396 0-0.35119 0.6599-1.2984 1.4664-2.105 0.80655-0.80655 1.4664-2.5608 1.4664-3.8984s0.40471-2.1818 0.89936-1.8761c1.0622 0.65651 4.9664-4.0203 4.9664-5.9492 0-0.73404 0.87987-1.3346 1.9553-1.3346s1.9553 0.43994 1.9553 0.97764c0 0.53769 0.6599 0.97763 1.4664 0.97763 0.80654 0 1.4664-0.6599 1.4664-1.4664 0-0.80655 0.62768-1.4664 1.3948-1.4664 1.097 0 4.471-4.9087 4.471-6.5048 0-0.18624-1.3198-0.33862-2.9329-0.33862s-2.9329 0.40499-2.9329 0.89995c0 0.49498-1.3198 1.1898-2.9329 1.5441s-2.9329 1.0492-2.9329 1.5441c0 0.49496-1.0503 0.89995-2.334 0.89995-1.4252 0-3.2334 1.1386-4.6438 2.924-1.2704 1.6082-2.7496 2.9356-3.2874 2.9498-1.1652 0.0307-4.4054 3.3883-6.7148 6.9581-2.1022 3.2495-2.753 5.7966-3.296 12.899-0.33676 4.4049-0.0629 6.1003 1.2136 7.5107 1.5623 1.7263 4.3977 1.6988 4.3977-0.0427v-0.00001zm-9.3918-22.853c-0.35042-0.9132 0.0452-1.7736 0.98045-2.1325 0.86233-0.33091 1.5679-1.1674 1.5679-1.8589 0-0.69149 0.66055-1.5107 1.4679-1.8206 0.80735-0.3098 2.2371-2.2266 3.1773-4.2595 0.94018-2.0329 2.2593-4.2776 2.9314-4.9881 0.67212-0.71052 1.222-1.7004 1.222-2.1997 0-0.49929 0.6599-0.9078 1.4664-0.9078 0.80654 0 1.4664-0.43994 1.4664-0.97764 0-0.53769 0.32995-0.88531 0.73322-0.77248 1.4531 0.40655 8.1548-3.4335 9.1113-5.2207 0.53802-1.0053 1.7597-1.8278 2.7148-1.8278 0.95509 0 2.681-0.87987 3.8353-1.9553s2.777-1.9553 3.606-1.9553c0.82903 0 1.5086-0.32996 1.5101-0.73323 0.002-0.40327 1.3201-1.6131 2.9301-2.6885 3.119-2.0833 3.891-4.3993 1.4664-4.3993-0.80654 0-1.4664 0.6599-1.4664 1.4664 0 0.80655-0.79189 1.4664-1.7597 1.4664-0.96786 0-2.1918 0.43212-2.72 0.96025-1.7676 1.7676-12.14 6.6898-12.14 5.761 0-0.50426 0.76989-1.1934 1.7109-1.5315 0.94097-0.33806 2.4038-1.3141 3.2508-2.169 0.84699-0.85489 2.7167-2.4286 4.1549-3.4972s2.615-2.4984 2.615-3.1773c0-1.8905-2.7712-1.4668-4.0765 0.62331-0.63809 1.0217-1.6575 1.6669-2.2654 1.4336-0.60787-0.23326-2.494 1.0204-4.1913 2.786-1.6974 1.7656-3.5457 3.6501-4.1074 4.1878-0.56175 0.5377-2.7761 2.8474-4.9209 5.1326-2.1447 2.2852-4.3399 4.1549-4.8782 4.1549s-0.97872 0.6193-0.97872 1.3762c0 2.5544-5.124 11.276-6.9687 11.862-1.0065 0.31945-1.83 1.164-1.83 1.8768 0 0.71278-0.6578 1.5484-1.4618 1.8569-1.018 0.39065-1.3348 1.5354-1.0436 3.7707 0.22999 1.7654 0.44785 3.5712 0.48414 4.0128 0.0363 0.44167 0.72463 0.14442 1.5296-0.66059 0.805-0.805 1.1993-2.1525 0.87619-2.9945zm40.676-6.0165c0-0.84495 0.68818-2.2245 1.5293-3.0656 1.1362-1.1362 1.2449-1.8093 0.423-2.6187-0.81583-0.80335-1.4653-0.576-2.4736 0.8659-0.75202 1.0754-1.8448 2.5107-2.4283 3.1896-0.58358 0.67891-0.79259 1.6688-0.46447 2.1997 0.94709 1.5324 3.4141 1.1198 3.4141-0.57099zm-46.942-4.3214c0.99635-0.53323 2.1022-2.293 2.4575-3.9105 0.35528-1.6176 1.0509-2.941 1.5459-2.941 0.49496 0 0.89995-0.6599 0.89995-1.4664 0-1.9916-0.93932-1.8433-3.4878 0.55093-1.2422 1.167-3.5354 2.0459-5.44 2.085-3.4324 0.0706-6.7143 1.3165-6.7143 2.549 0 1.1058 5.1608 4.0474 7.1521 4.0766 0.97633 0.0143 2.5903-0.41026 3.5867-0.94348zm16.9-21.918c8.6525-8.9536 12.842-14.327 12.896-16.542 0.0562-2.2805 7.1725-12.386 8.7224-12.386 1.202 0 4.5121-2.98 4.5121-4.062 0-1.2438-2.2928-0.99581-5.4712 0.59187-3.8165 1.9064-10.376 8.3185-11.87 11.603-0.66551 1.4634-2.2053 3.04-3.4217 3.5036-3.0769 1.1728-8.2886 8.7584-10.567 15.38-1.0505 3.0534-1.91 5.9227-1.91 6.3762 0 1.9439 2.3286 0.48128 7.1086-4.4651zm-8.6676-5.9739c-0.74651-2.9744 1.1486-6.3338 3.5729-6.3338 1.2198 0 2.3242-0.99707 2.9616-2.6738 3.0982-8.149 6.3743-13.169 12.292-18.834 1.404-1.3442 4.4155-4.3138 6.6921-6.599s4.6361-4.1549 5.2433-4.1549c0.60722 0 1.104-0.41808 1.104-0.92908s2.6495-1.2288 5.8877-1.5952c3.2382-0.36637 6.17-1.1229 6.515-1.6811 0.38517-0.62321-0.00065-0.77404-0.99951-0.39074-0.89475 0.34334-1.6268 0.30067-1.6268-0.0948 0-0.3955-1.7597-0.76523-3.9105-0.82163s-3.9105 0.31065-3.9105 0.81566c0 0.505-0.85235 0.64767-1.8941 0.31702-1.0418-0.33064-2.6915-0.1405-3.6661 0.42252s-2.9818 1.4529-4.4605 1.9775c-1.4787 0.52462-2.6885 1.5855-2.6885 2.3576 0 0.77206-1.3198 2.5143-2.9329 3.8716s-2.9329 2.9362-2.9329 3.5086c0 0.57241-0.38147 1.0407-0.84771 1.0407-0.46625 0-2.0324 1.7901-3.4803 3.978s-4.1453 4.8706-5.9942 5.9615c-1.849 1.0909-3.1393 2.3434-2.8674 2.7832 0.27186 0.43988-0.75722 2.0513-2.2868 3.5809-3.971 3.971-5.6268 13.401-2.9249 16.656 1.5953 1.9222 3.8617-0.34945 3.1555-3.1629zm50.158-0.77178c-0.2901-0.75599 1.2711-2.3966 3.8075-4.0013 4.2982-2.7193 4.9492-4.3069 1.649-4.0213-3.5668 0.30864-12.017 2.8564-12.017 3.6231 0 0.43604-0.63393 0.79281-1.4088 0.79281-1.8639 0-2.9648 1.8833-1.7886 3.0595 0.59342 0.59342 1.3901 0.38417 2.1853-0.574 1.6495-1.9875 2.6252-1.9027 5.1478 0.44738 2.4425 2.2755 3.111 2.4613 2.4252 0.67387zm-35.992-39.295c2.3085-2.4222 5.3654-4.6825 6.7932-5.023 1.4278-0.34047 3.0359-0.92047 3.5736-1.2889 0.5377-0.36842 1.8575-0.72605 2.9329-0.79473 1.0754-0.0686 4.1549-0.55505 6.8434-1.0808 2.6885-0.52578 5.2696-0.58396 5.7357-0.12927 0.46617 0.45469 2.7312 0.2598 5.0335-0.43308s4.7594-0.90535 5.4604-0.47215c0.70093 0.4332 1.6254 0.57073 2.0543 0.30563 1.8863-1.1658 0.35573-2.2196-5.5426-3.8162-6.5111-1.7625-18.676-1.6305-19.952 0.21649-0.88013 1.2738-5.2022 1.3677-4.781 0.1039 0.19468-0.58402 2.4142-2.1409 4.9322-3.4597 5.2086-2.728 11.2-3.052 20.886-1.1296 5.2072 1.0335 6.8304 0.9608 12.22-0.54733 3.4186-0.95651 7.3154-2.5098 8.6597-3.4518 1.3442-0.942 3.3942-2.0074 4.5555-2.3677 2.2687-0.70373 4.8266-3.2546 4.0462-4.035-0.46137-0.46138-7.08 1.5693-11.046 3.389-1.0754 0.49344-3.0551 1.1057-4.3993 1.3606-1.3442 0.25487-3.8723 1.0438-5.6179 1.7531-2.785 1.1317-3.3796 1.084-4.8532-0.38975-1.5875-1.5875-1.5518-1.6795 0.65273-1.6795 2.6096 0 5.9079-2.5407 5.9079-4.5509 0-0.79684-1.2518-1.382-3.1773-1.4851-1.7475-0.0936-4.7171-0.2575-6.599-0.36424-5.5182-0.31298-16.771 1.5444-21.291 3.5144-9.8406 4.2885-19.247 15.829-18.967 23.27 0.072 1.914-0.35546 3.7806-0.94982 4.1479-1.2965 0.80128-0.23569 2.8417 1.4774 2.8417 0.66801 0 3.1033-1.9818 5.4118-4.4039zm300.99-21.831c1.6874-1.0711 2.947-6.0062 2.2481-8.8083-0.5512-2.21-0.62932-2.2277-2.1565-0.48882-2.4292 2.766-4.9026 8.1039-4.2467 9.1652 0.70819 1.1459 2.4695 1.2018 4.1551 0.13199zm-199.48-19.4c1.2098-0.36868 2.1997-1.0806 2.1997-1.5821 0-0.50145 0.54992-0.92963 1.222-0.95148 2.0342-0.0662 7.8881-5.6185 8.0357-7.6217 0.076-1.0307 0.88359-2.6196 1.7948-3.5308 0.91118-0.91119 1.6567-2.1874 1.6567-2.8361 0-1.4118 2.1978-3.3657 6.8756-6.1127 2.5356-1.489 3.8706-1.7655 5.0209-1.0398 1.111 0.70081 3.1799 0.48109 7.1101-0.75512 5.0591-1.5913 5.5171-1.9689 5.2442-4.3239-0.52024-4.491-6.3952-3.8414-19.569 2.1636-2.5332 1.1547-4.6229 2.4294-4.6438 2.8326-0.0209 0.40327-0.95852 1.6538-2.0836 2.7789-1.2125 1.2125-1.847 2.8052-1.558 3.9105 0.26823 1.0257 0.0305 1.8649-0.52816 1.8649-1.3782 0-4.6669 3.8944-4.6669 5.5266 0 0.72427-0.40608 1.3169-0.90243 1.3169-0.49633 0-2.1489 1.2098-3.6724 2.6885s-4.2101 3.7542-5.9702 5.0568c-2.2758 1.6842-2.8453 2.5877-1.9714 3.1278 0.6823 0.42168 1.8912 0.18067 2.7177-0.54182 0.81883-0.71574 2.4786-1.603 3.6884-1.9717zm190.85-5.9624c3.103-3.1174 3.4234-3.9858 3.7764-10.234 0.32576-5.7651 0.1426-6.8276-1.1769-6.8276-1.0328 0-1.9329 1.47-2.6543 4.3352-0.60038 2.3843-2.3665 5.7631-3.9246 7.5083-1.5582 1.7452-2.833 3.2853-2.833 3.4223 0 1.1885 2.0716 5.2578 2.6643 5.2335 0.41658-0.0171 2.2832-1.564 4.1481-3.4375zm-172.2-5.76c2.704-0.95403 6.8379-1.2967 12.832-1.0638 7.9827 0.31023 8.843 0.17291 8.843-1.4115 0-2.0135-2.2561-2.689-11.899-3.5628-6.2976-0.57066-6.6596-0.48066-10.51 2.6132-2.193 1.7624-3.9873 3.5706-3.9873 4.0183 0 1.0607 0.0508 1.0543 4.7209-0.59344zm86.841-16.59c0.15163-2.3703-0.19482-3.5104-1.0667-3.5104-2.0059 0-3.1987 2.1598-2.9694 5.377 0.26919 3.7774 0.18373 3.6741 2.1363 2.5814 1.0113-0.56594 1.7642-2.3287 1.8998-4.4479zm-92.336-10.299c1.9936-2.1188 4.6025-4.3757 5.7976-5.0152 2.1275-1.1386 2.1334-1.1924 0.28582-2.5782-3.193-2.3948-11.596-1.1808-15.107 2.1822-3.1098 2.9794-3.9515 7.3115-1.4206 7.3115 0.81985 0 1.8926-1.0571 2.3838-2.3491 1.5278-4.0184 3.3342-4.3034 2.6039-0.41079-0.58644 3.126-0.16058 4.7176 1.2612 4.7136 0.31365-0.00089 2.2014-1.7352 4.195-3.854zm100.68 0.37016c0.88006-3.2463 0.0007-11.928-1.2889-12.725-0.46682-0.28852-0.84877-3.1382-0.84877-6.3327 0-4.717-0.29938-5.8081-1.5936-5.8081-1.345 0-1.4873 0.72435-0.91213 4.6438 1.4256 9.7143 1.6911 12.633 1.652 18.154-0.0436 6.1532 1.5797 7.2757 2.9914 2.0684zm-40.021-2.7877c0.13442-0.49288-0.30551-1.0795-0.97763-1.3035-0.67213-0.22404-1.222 0.32588-1.222 1.222 0 1.6555 1.7527 1.7204 2.1997 0.0814v0.00003zm61.914 216.71c-0.38452-1.2098-1.2927-2.1997-2.0182-2.1997-0.72552 0-1.485-0.49779-1.6878-1.1062s-1.8001-1.2188-3.5496-1.3564c-2.805-0.22065-3.2476 0.0833-3.7455 2.5727-0.31052 1.5526-0.94952 2.8229-1.42 2.8229-0.78853 0-0.96718-0.91215-1.2446-6.3546-0.08-1.5685-0.67978-1.8977-3.0326-1.6643-4.4517 0.44158-8.6126 2.2357-10.457 4.5088-1.2683 1.5633-1.9283 1.7744-2.8076 0.89807-0.63226-0.6301-1.6908-0.93792-2.3524-0.68404-0.66157 0.25387-2.5877-1.1156-4.2802-3.0433-3.1679-3.608-4.1639-9.0121-2.1275-11.544 6.8694-8.5396 10.884-12.424 12.842-12.424 0.95404 0 2.0167-0.45635 2.3614-1.0141 0.38967-0.63052 3.1215-0.8044 7.2221-0.45971 4.8291 0.40592 7.3483 0.16373 9.407-0.90434 1.5464-0.8023 3.0518-1.1951 3.3452-0.8729 0.2934 0.32221-0.0192 0.78315-0.69467 1.0243-2.3188 0.82789-0.11851 2.2339 2.5101 1.604 3.4669-0.83084 3.6143-1.0223 2.1478-2.7892-1.055-1.2712-0.96316-1.4489 0.59391-1.1481 1.0132 0.19571 2.6902 0.71896 3.7267 1.1628 1.4112 0.60424 2.2393 0.27276 3.2965-1.3196 1.4138-2.1293 6.0616-3.0102 6.0616-1.1489 0 0.5377 0.63044 0.97764 1.401 0.97764 0.77055 0 2.96 1.9025 4.8654 4.2278 2.9997 3.6608 3.5508 5.1574 4.1084 11.157 0.57121 6.146 0.39394 7.3343-1.5675 10.508-3.0696 4.9667-11.248 7.8511-13.742 4.8465-1.644-1.981-5.7617-1.7885-6.4207 0.30015-0.29688 0.94097-0.87799 2.5907-1.2913 3.6661-0.72713 1.8918-0.77424 1.8838-1.4507-0.24441zm-67.502-4.3993c1.5947-2.0164 3.1781-3.6661 3.5187-3.6661 0.34056-0.00002 0.84929-0.8799 1.1305-1.9553 0.30592-1.1698 1.3335-1.9553 2.5581-1.9553 1.1257 0 2.0468-0.47443 2.0468-1.0543 0-0.57985 1.6498-2.6761 3.6661-4.6583 2.0164-1.9822 4.5088-5.2538 5.5388-7.2702s2.5621-4.2095 3.4048-4.8736c1.1013-0.86787 1.0003-0.3826-0.35886 1.7254-1.3666 2.1196-1.8691 4.5595-1.8118 8.7987 0.1014 7.5064 1.2109 13.198 2.5726 13.198 0.76465 0 0.76224 0.30396-0.009 1.0748-1.1856 1.1856-5.1821 0.30596-5.1821-1.1406 0-1.27-8.5368-1.1487-9.3287 0.13253-0.35498 0.57436-1.2924 0.79602-2.0831 0.49258-0.79074-0.30344-3.0409 0.65642-5.0003 2.133l-3.5626 2.6847 2.8995-3.6661h0.00025zm96.829-2.7655c0.76419-0.84888 1.3894-2.8221 1.3894-4.3849v-2.8414l1.9553 3.6481c2.6441 4.9333 2.4955 5.4997-1.3894 5.2966-2.9781-0.15574-3.1924-0.34409-1.9553-1.7183zm-1.9101-27.012c-0.33604-0.33605-0.62659-2.1874-0.64564-4.1142-0.04-4.0401-1.2083-6.4156-5.4295-11.04-1.661-1.8196-4.5941-5.769-6.5179-8.7764s-3.9618-5.7547-4.5288-6.1051c-0.8613-0.53231-4.8168-8.1101-5.521-10.577-0.11511-0.40327-0.31929-0.95319-0.45372-1.222-0.13442-0.26885-0.2994-0.89209-0.36661-1.385-0.0673-0.49289-0.45215-1.2261-0.85543-1.6294-0.40327-0.40327-0.73322-1.7338-0.73322-2.9567s-0.43994-2.4953-0.97763-2.8276c-0.5377-0.33232-0.97764-1.4794-0.97764-2.549 0-1.2591-1.1203-2.4317-3.1773-3.3258-2.4465-1.0634-2.7276-1.4164-1.222-1.5351 1.0754-0.0848 2.5085-0.0819 3.1846 0.006 1.3856 0.18076 3.3517-4.1728 3.3895-7.5053 0.029-2.5601 1.622-2.777 5.9874-0.81538 3.6072 1.6209 4.4113 1.7686 28.988 5.3252 8.4645 1.2249 9.2303 1.6008 14.502 7.1184 2.4944 2.6109 4.9812 4.7483 5.5264 4.7497 0.54513 0.00098 2.9708 1.7821 5.3905 3.957 2.4359 2.1895 3.3839 3.4639 2.124 2.8554-3.2616-1.5754-12.222-3.7985-13.107-3.2518-2.0333 1.2566 0.88962 8.1684 3.4543 8.1684 0.45957 0 2.1664 1.3309 3.7931 2.9575 2.2899 2.2899 2.8193 3.5082 2.3452 5.397-0.33676 1.3417-0.23364 3.2004 0.22914 4.1303 0.50281 1.0104 0.37852 3.2643-0.30883 5.6008l-1.1503 3.91-1.2098-3.6656c-1.0006-3.0315-1.6661-3.6652-3.8493-3.6652-4.3663 0-6.9851 2.5165-6.9851 6.712 0 5.9093-1.7593 7.3894-9.4522 7.9525l-6.6787 0.48881-2.0775 4.1142c-1.1426 2.2628-2.3524 3.8392-2.6885 3.5032zm-102.28-11.103c6.073-5.586 6.2705-5.9092 4.4569-7.2897-2.3457-1.7856-2.3609-1.7855-13.999 0.0887-10.901 1.7553-25.366 1.5828-26.097-0.31118-0.47454-1.2293 4.6706-1.7862 11.915-1.2897 2.3758 0.16286 3.7184-0.43237 5.4093-2.3983 1.9438-2.2598 3.4191-2.7567 10.865-3.6596 5.6327-0.68302 8.794-1.5104 9.1315-2.39 0.8684-2.263-0.296-2.4352-5.6721-0.83862-6.5871 1.9561-10.631 1.9423-13.47-0.0461-1.9468-1.3636-2.2099-2.2638-1.9284-6.599 0.23207-3.574-0.026-4.9918-0.89607-4.9222-0.67213 0.0538-2.1244 0.16376-3.2272 0.24441-2.4239 0.17727-5.2459 6.2103-4.4285 9.4673 0.52305 2.084 0.35985 2.1572-3.1062 1.3946-2.012-0.4427-6.1629-1-9.2241-1.2385-4.884-0.38043-5.8298-0.15263-7.7202 1.8596-1.7842 1.8991-1.9411 2.55-0.91345 3.7882 0.68246 0.82232 2.0668 1.4951 3.0764 1.4951s1.8356 0.43993 1.8356 0.97763c0 1.4278-2.2726 1.1944-4.4569-0.45773-2.4736-1.8709-4.7271-1.854-8.4345 0.0632l-3.018 1.5607 2.25-3.1598c1.2375-1.7379 3.727-4.5299 5.5323-6.2044 1.8053-1.6746 4.9339-4.596 6.9524-6.492 2.0186-1.896 6.2735-4.5717 9.4555-5.9458 5.868-2.5342 8.3196-5.7634 6.9955-9.2141-0.60408-1.5743-4.5222-2.004-4.5222-0.49598 0 0.51605-1.2098 0.91324-2.6885 0.88264s-4.8037 0.46812-7.389 1.1083c-3.8605 0.9559-5.2974 1.9774-8.0407 5.7164-1.8371 2.5039-4.0231 5.9636-4.8576 7.6883-0.83454 1.7247-1.9455 3.4004-2.4688 3.7238-1.7187 1.0622-0.99634-2.2724 1.5157-6.997 4.1839-7.8688 8.3109-11.969 15.619-15.519 3.7639-1.8282 8.3216-4.8426 10.128-6.6988 1.8067-1.8561 4.6786-3.6362 6.3821-3.9558 4.0015-0.75067 13.988 0.17588 16.524 1.5331 1.8109 0.96916 23.353 0.46078 25.055-0.59129 1.4857-0.91821 10.443 1.8196 11.666 3.5658 1.2229 1.7459 1.451 1.7683 3.0714 0.30198 1.0195-0.92266 1.5429-2.3772 1.2535-3.4837-0.36652-1.4016 0.003-1.8997 1.4096-1.8997 1.0485 0 2.2228-0.31645 2.6096-0.70322 1.0336-1.0336 7.4313-1.0854 8.0618-0.0652 0.29733 0.48109 1.6319 0.15968 2.9657-0.71427 2.3388-1.5325 2.3878-1.5192 1.3759 0.37142-1.6629 3.1072-1.2732 3.7193 2.2927 3.601 2.9579-0.0982 3.4085 0.2225 3.9221 2.7905 0.31915 1.5958 1.3126 3.7105 2.2075 4.6995 1.2475 1.3785 1.3589 2.0665 0.4772 2.9482-0.63252 0.63253-1.15 0.75801-1.15 0.27886 0-1.3977-2.8675 2.7887-2.9018 4.2365-0.0171 0.72174-0.91096 2.4308-1.9864 3.798s-1.9553 3.1476-1.9553 3.9566c0 0.80899-1.3184 3.6135-2.9297 6.2323-1.6114 2.6188-2.8432 5.0871-2.7376 5.4851 0.10571 0.39804-0.77559 2.6761-1.9584 5.0623s-2.1506 4.8844-2.1506 5.5516c0 2.6872-2.779 4.0627-7.2012 3.5643-4.0574-0.45733-4.4625-0.29049-5.861 2.4139-2.9333 5.6724-9.0513 7.6984-13.817 4.5756-2.8822-1.8885-6.9577-1.2224-13.082 2.1382-6.8812 3.7759-6.9186 2.6697-0.12127-3.5827v-0.00005zm-10.754-21.981c0-1.361-3.0862-6.3061-3.9356-6.3061-1.5154 0-1.1059 2.7314 0.73119 4.877 1.6024 1.8714 3.2044 2.5859 3.2044 1.4291zm-11.766-16.996c1.3365-2.4973 1.2782-2.9972-0.34983-2.9972-1.281 0-2.5487 1.9849-2.5487 3.9905 0 1.591 1.8558 0.95504 2.8985-0.99333zm6.2474-0.5366c0.34032-0.88684 1.1921-1.206 2.1933-0.82185 1.137 0.43631 1.4967 0.20736 1.178-0.7497-1.0089-3.0298-6.6514-1.609-6.6514 1.6748 0 1.8053 2.5789 1.7242 3.2801-0.10322zm55.378-16.636c0-0.80655-0.41396-1.4664-0.91993-1.4664-1.2328 0-2.1157 1.5267-1.3346 2.3077 1.101 1.101 2.2546 0.67055 2.2546-0.84127zm-107.54-57.076c0-0.5377 0.43994-1.2495 0.97763-1.5818 0.5377-0.33232 0.97764-0.16427 0.97764 0.37343s-0.43994 1.2495-0.97764 1.5818c-0.53769 0.33231-0.97763 0.16427-0.97763-0.37343zm-12.1-78.38c0.41975-2.625 0.0712-4.532-1.2364-6.7632-1.6268-2.776-2.1859-3.0513-5.2427-2.5816-3.1667 0.48667-3.2803 0.41989-1.524-0.89595 1.0437-0.78199 2.8982-1.4218 4.1209-1.4218 4.9167 0 13.854 11.312 11.109 14.06-0.60082 0.60136-2.6042 1.1305-4.4519 1.1759-3.3431 0.0821-3.3566 0.0646-2.7749-3.5733zm142.12-5.2362c0-0.90688 0.83588-1.5381 2.0367-1.5381 2.3825 0 2.0458 2.2845-0.40689 2.7602-0.96469 0.1871-1.6298-0.31163-1.6298-1.222z"/>
  </g>
  <metadata>
    <rdf:RDF>
      <cc:Work>
        <dc:format>image/svg+xml</dc:format>
        <dc:type rdf:resource="http://purl.org/dc/dcmitype/StillImage"/>
        <cc:license rdf:resource="http://creativecommons.org/licenses/publicdomain/"/>
        <dc:publisher>
          <cc:Agent rdf:about="http://openclipart.org/">
            <dc:title>Openclipart</dc:title>
          </cc:Agent>
        </dc:publisher>
        <dc:title>freedom of speech</dc:title>
        <dc:date>2011-08-05T15:31:57</dc:date>
        <dc:description>http://radicalgraphics.org/collection/view_photo.php?set_albumName=Censorship&amp;id=censorship</dc:description>
        <dc:source>http://openclipart.org/detail/153793/freedom-of-speech-by-worker</dc:source>
        <dc:creator>
          <cc:Agent>
            <dc:title>worker</dc:title>
          </cc:Agent>
        </dc:creator>
        <dc:subject>
          <rdf:Bag>
            <rdf:li>america</rdf:li>
            <rdf:li>capitalism</rdf:li>
            <rdf:li>clip art</rdf:li>
            <rdf:li>clipart</rdf:li>
            <rdf:li>democracy</rdf:li>
            <rdf:li>flag</rdf:li>
            <rdf:li>freedom</rdf:li>
            <rdf:li>of</rdf:li>
            <rdf:li>speech</rdf:li>
            <rdf:li>usa</rdf:li>
          </rdf:Bag>
        </dc:subject>
      </cc:Work>
      <cc:License rdf:about="http://creativecommons.org/licenses/publicdomain/">
        <cc:permits rdf:resource="http://creativecommons.org/ns#Reproduction"/>
        <cc:permits rdf:resource="http://creativecommons.org/ns#Distribution"/>
        <cc:permits rdf:resource="http://creativecommons.org/ns#DerivativeWorks"/>
      </cc:License>
    </rdf:RDF>
  </metadata>
</svg>
